<svg id="rectangle" xmlns="http://www.w3.org/2000/svg" xmlns:xlink="http://www.w3.org/1999/xlink" viewBox="0 0 630 369"><defs><style>.cls-1{fill:url(#linear-gradient);}.cls-2{fill:#fff;}</style><linearGradient id="linear-gradient" x1="-124.85" y1="184.5" x2="25.51" y2="184.5" gradientUnits="userSpaceOnUse"><stop offset="0.02" stop-color="#fff"/><stop offset="0.86" stop-color="#ed1c24"/><stop offset="0.89" stop-color="#ed1c24"/></linearGradient></defs><title>Configuration</title><rect class="cls-1" width="630" height="369"/><path class="cls-2" d="M595.1,282.92c.12-2.6.19-5.21.19-7.84s-.07-5.25-.19-7.84l-22.61-4.33a136.49,136.49,0,0,0-6.27-30.6l19.17-12.62q-2.77-7.44-6.24-14.54l-22.62,4.67A138,138,0,0,0,539,184.68l12.84-18.92a162.25,162.25,0,0,0-11.76-11.25l-19.15,13a137.16,137.16,0,0,0-25-15.75l4.61-22.34a159.44,159.44,0,0,0-15.79-6L471.94,142.8a136.47,136.47,0,0,0-27.83-4.53l-4.28-22.38c-1.25,0-2.51,0-3.77,0q-7,0-13.88.61l-4.35,22.76a136.78,136.78,0,0,0-26,6.07l-12.51-19a160,160,0,0,0-16.77,7.54l4.69,22.68a138,138,0,0,0-20.63,14.69l-18.86-12.8a159.27,159.27,0,0,0-13.13,13.74l13,19.1a137.05,137.05,0,0,0-13.11,20.43L292.07,207a158.35,158.35,0,0,0-7.21,18l19.23,12.65a135.7,135.7,0,0,0-4.45,23.3l-22.5,4.31c-.2,3.24-.31,6.49-.31,9.78s.11,6.54.31,9.77l22.5,4.31a136,136,0,0,0,4.45,23.31l-19.23,12.64a158.35,158.35,0,0,0,7.21,18l22.39-4.62a136.54,136.54,0,0,0,13.11,20.43l-13,19.11a160.62,160.62,0,0,0,13.13,13.73L346.6,379a137.18,137.18,0,0,0,20.63,14.68l-4.69,22.69a157.9,157.9,0,0,0,16.77,7.53l12.51-19a135.28,135.28,0,0,0,26,6.07l4.35,22.77c4.58.39,9.2.61,13.88.61,1.26,0,2.52,0,3.77-.05l4.28-22.37a137.17,137.17,0,0,0,27.83-4.54l12.75,19.38a156.93,156.93,0,0,0,15.79-6l-4.61-22.35a137.66,137.66,0,0,0,25-15.74l19.15,13a160.12,160.12,0,0,0,11.76-11.25L539,365.47a137.67,137.67,0,0,0,17.54-25.14L579.15,345q3.47-7.08,6.24-14.54l-19.17-12.61a136.49,136.49,0,0,0,6.27-30.6Zm-159,96.17a104,104,0,1,1,104-104A104,104,0,0,1,436.06,379.09Z" transform="translate(-121.06 -90.58)"/></svg>