<svg id="svg" version="1.1" width="200" height="100" viewBox="0 0 400 400" xmlns="http://www.w3.org/2000/svg" xmlns:xlink="http://www.w3.org/1999/xlink" ><g id="svgg"><path id="path0" d="M166.800 177.800 L 166.800 184.800 174.600 184.800 L 182.400 184.800 182.400 177.800 L 182.400 170.800 174.600 170.800 L 166.800 170.800 166.800 177.800 M102.800 186.000 C 102.800 186.220,102.080 186.400,101.200 186.400 C 100.320 186.400,99.600 186.580,99.600 186.800 C 99.600 187.020,99.060 187.200,98.400 187.200 C 97.740 187.200,97.200 187.380,97.200 187.600 C 97.200 187.820,96.840 188.000,96.400 188.000 C 95.960 188.000,95.600 188.180,95.600 188.400 C 95.600 188.620,95.252 188.800,94.827 188.800 C 94.402 188.800,93.940 189.160,93.800 189.600 C 93.660 190.040,93.284 190.400,92.964 190.400 C 92.424 190.400,88.000 194.506,88.000 195.008 C 88.000 195.132,87.640 195.620,87.200 196.092 C 86.760 196.564,86.400 197.187,86.400 197.475 C 86.400 197.764,86.220 198.000,86.000 198.000 C 85.780 198.000,85.600 198.349,85.600 198.776 C 85.600 199.203,85.420 199.664,85.200 199.800 C 84.980 199.936,84.800 200.487,84.800 201.024 C 84.800 201.561,84.620 202.000,84.400 202.000 C 84.180 202.000,84.000 202.900,84.000 204.000 C 84.000 205.100,83.820 206.000,83.600 206.000 C 83.355 206.000,83.200 207.933,83.200 211.000 C 83.200 214.067,83.355 216.000,83.600 216.000 C 83.820 216.000,84.000 216.799,84.000 217.776 C 84.000 218.753,84.180 219.664,84.400 219.800 C 84.620 219.936,84.800 220.380,84.800 220.786 C 84.800 221.724,86.381 224.797,87.300 225.647 C 87.685 226.003,88.000 226.502,88.000 226.756 C 88.000 227.357,92.243 231.600,92.844 231.600 C 93.098 231.600,93.597 231.915,93.953 232.300 C 94.803 233.219,97.876 234.800,98.814 234.800 C 99.220 234.800,99.664 234.980,99.800 235.200 C 99.936 235.420,100.847 235.600,101.824 235.600 C 102.801 235.600,103.600 235.780,103.600 236.000 C 103.600 236.245,105.533 236.400,108.600 236.400 C 111.667 236.400,113.600 236.245,113.600 236.000 C 113.600 235.780,114.320 235.600,115.200 235.600 C 116.080 235.600,116.800 235.420,116.800 235.200 C 116.800 234.980,117.340 234.800,118.000 234.800 C 118.660 234.800,119.200 234.620,119.200 234.400 C 119.200 234.180,119.560 234.000,120.000 234.000 C 120.440 234.000,120.800 233.820,120.800 233.600 C 120.800 233.380,121.160 233.200,121.600 233.200 C 122.040 233.200,122.400 233.020,122.400 232.800 C 122.400 232.580,122.597 232.400,122.839 232.400 C 123.502 232.400,129.200 226.488,129.200 225.800 C 129.200 225.470,129.335 225.199,129.500 225.197 C 129.906 225.193,130.800 223.214,130.800 222.320 C 130.800 221.924,130.980 221.600,131.200 221.600 C 131.420 221.600,131.600 221.060,131.600 220.400 L 131.600 219.200 123.800 219.200 C 117.058 219.200,116.000 219.283,116.000 219.813 C 116.000 220.499,113.458 223.200,112.813 223.200 C 112.586 223.200,112.400 223.380,112.400 223.600 C 112.400 223.820,111.860 224.000,111.200 224.000 C 110.540 224.000,110.000 224.180,110.000 224.400 C 110.000 224.620,109.370 224.800,108.600 224.800 C 107.830 224.800,107.200 224.620,107.200 224.400 C 107.200 224.180,106.610 224.000,105.888 224.000 C 105.035 224.000,104.375 223.720,104.000 223.200 C 103.683 222.760,103.180 222.400,102.883 222.400 C 102.187 222.400,101.200 221.413,101.200 220.717 C 101.200 220.420,100.840 219.917,100.400 219.600 C 99.930 219.261,99.600 218.565,99.600 217.912 C 99.600 217.300,99.420 216.800,99.200 216.800 C 98.980 216.800,98.800 216.620,98.800 216.400 C 98.800 216.140,104.667 216.000,115.600 216.000 L 132.400 216.000 132.400 214.400 C 132.400 213.520,132.220 212.800,132.000 212.800 C 131.761 212.800,131.600 211.267,131.600 209.000 C 131.600 206.733,131.439 205.200,131.200 205.200 C 130.980 205.200,130.800 204.480,130.800 203.600 C 130.800 202.720,130.620 202.000,130.400 202.000 C 130.180 202.000,130.000 201.460,130.000 200.800 C 130.000 200.140,129.820 199.600,129.600 199.600 C 129.380 199.600,129.200 199.240,129.200 198.800 C 129.200 198.360,129.020 198.000,128.800 198.000 C 128.580 198.000,128.400 197.640,128.400 197.200 C 128.400 196.760,128.264 196.400,128.098 196.400 C 127.931 196.400,127.560 195.869,127.273 195.219 C 126.985 194.569,126.401 193.927,125.975 193.792 C 125.549 193.657,125.200 193.377,125.200 193.171 C 125.200 192.583,121.184 188.800,120.559 188.800 C 120.252 188.800,120.000 188.620,120.000 188.400 C 120.000 188.180,119.640 188.000,119.200 188.000 C 118.760 188.000,118.400 187.820,118.400 187.600 C 118.400 187.380,117.860 187.200,117.200 187.200 C 116.540 187.200,116.000 187.020,116.000 186.800 C 116.000 186.580,115.280 186.400,114.400 186.400 C 113.520 186.400,112.800 186.220,112.800 186.000 C 112.800 185.755,110.867 185.600,107.800 185.600 C 104.733 185.600,102.800 185.755,102.800 186.000 M245.800 186.000 C 245.664 186.220,244.753 186.400,243.776 186.400 C 242.799 186.400,242.000 186.580,242.000 186.800 C 242.000 187.020,241.460 187.200,240.800 187.200 C 240.140 187.200,239.600 187.380,239.600 187.600 C 239.600 187.820,239.240 188.000,238.800 188.000 C 238.360 188.000,238.000 188.180,238.000 188.400 C 238.000 188.620,237.680 188.800,237.288 188.800 C 236.897 188.800,236.317 189.160,236.000 189.600 C 235.683 190.040,235.192 190.400,234.909 190.400 C 234.194 190.400,229.526 195.136,228.797 196.600 C 228.469 197.260,227.975 198.038,227.700 198.329 C 227.425 198.619,227.200 199.384,227.200 200.029 C 227.200 200.673,227.020 201.200,226.800 201.200 C 226.580 201.200,226.400 201.740,226.400 202.400 C 226.400 203.060,226.220 203.600,226.000 203.600 C 225.748 203.600,225.600 206.333,225.600 211.000 C 225.600 215.667,225.748 218.400,226.000 218.400 C 226.220 218.400,226.400 218.940,226.400 219.600 C 226.400 220.260,226.557 220.800,226.749 220.800 C 226.941 220.800,227.207 221.482,227.340 222.315 C 227.473 223.148,227.946 224.221,228.391 224.698 C 228.836 225.176,229.200 225.757,229.200 225.990 C 229.200 226.650,235.114 232.400,235.794 232.400 C 236.127 232.400,236.400 232.580,236.400 232.800 C 236.400 233.020,236.760 233.200,237.200 233.200 C 237.640 233.200,238.000 233.380,238.000 233.600 C 238.000 233.820,238.360 234.000,238.800 234.000 C 239.240 234.000,239.600 234.180,239.600 234.400 C 239.600 234.620,240.140 234.800,240.800 234.800 C 241.460 234.800,242.000 234.980,242.000 235.200 C 242.000 235.420,242.619 235.600,243.376 235.600 C 244.133 235.600,244.864 235.780,245.000 236.000 C 245.144 236.233,247.396 236.400,250.400 236.400 C 253.404 236.400,255.656 236.233,255.800 236.000 C 255.936 235.780,256.667 235.600,257.424 235.600 C 258.181 235.600,258.800 235.420,258.800 235.200 C 258.800 234.980,259.340 234.800,260.000 234.800 C 260.660 234.800,261.200 234.620,261.200 234.400 C 261.200 234.180,261.560 234.000,262.000 234.000 C 262.440 234.000,262.800 233.820,262.800 233.600 C 262.800 233.380,263.160 233.200,263.600 233.200 C 264.040 233.200,264.400 233.020,264.400 232.800 C 264.400 232.580,264.673 232.400,265.006 232.400 C 265.797 232.400,271.600 226.597,271.600 225.806 C 271.600 225.473,271.752 225.200,271.937 225.200 C 272.123 225.200,272.682 224.345,273.181 223.300 C 273.680 222.255,274.273 221.048,274.499 220.617 C 274.725 220.187,275.000 218.252,275.110 216.317 C 275.221 214.383,275.466 212.800,275.655 212.800 C 275.845 212.800,276.000 211.990,276.000 211.000 C 276.000 210.010,275.846 209.200,275.659 209.200 C 275.471 209.200,275.213 207.449,275.085 205.309 C 274.954 203.113,274.667 201.356,274.427 201.276 C 274.192 201.197,274.000 200.883,274.000 200.577 C 274.000 199.797,272.309 196.400,271.920 196.400 C 271.744 196.400,271.600 196.201,271.600 195.959 C 271.600 195.345,266.522 190.400,265.891 190.400 C 265.608 190.400,265.117 190.040,264.800 189.600 C 264.483 189.160,263.903 188.800,263.512 188.800 C 263.120 188.800,262.800 188.620,262.800 188.400 C 262.800 188.180,262.440 188.000,262.000 188.000 C 261.560 188.000,261.200 187.820,261.200 187.600 C 261.200 187.380,260.660 187.200,260.000 187.200 C 259.340 187.200,258.800 187.020,258.800 186.800 C 258.800 186.580,257.990 186.400,257.000 186.400 C 256.010 186.400,255.200 186.220,255.200 186.000 C 255.200 185.757,253.408 185.600,250.624 185.600 C 248.004 185.600,245.942 185.771,245.800 186.000 M302.000 186.000 C 302.000 186.220,301.280 186.400,300.400 186.400 C 299.520 186.400,298.800 186.580,298.800 186.800 C 298.800 187.020,298.440 187.200,298.000 187.200 C 297.560 187.200,297.200 187.380,297.200 187.600 C 297.200 187.820,296.930 188.000,296.600 188.000 C 296.270 188.000,296.000 188.180,296.000 188.400 C 296.000 188.620,295.770 188.800,295.488 188.800 C 295.207 188.800,294.712 189.177,294.388 189.637 C 292.499 192.326,292.400 192.328,292.400 189.661 L 292.400 187.200 284.800 187.200 L 277.200 187.200 277.200 211.000 L 277.200 234.800 285.200 234.800 L 293.200 234.800 293.200 219.600 C 293.200 209.733,293.340 204.400,293.600 204.400 C 293.820 204.400,294.000 204.125,294.000 203.789 C 294.000 202.758,297.460 199.600,298.589 199.600 C 299.145 199.600,299.600 199.420,299.600 199.200 C 299.600 198.980,300.140 198.800,300.800 198.800 C 301.460 198.800,302.000 198.980,302.000 199.200 C 302.000 199.420,302.360 199.600,302.800 199.600 C 303.240 199.600,303.600 199.780,303.600 200.000 C 303.600 200.220,303.883 200.400,304.229 200.400 C 305.037 200.400,306.000 201.363,306.000 202.171 C 306.000 202.517,306.180 202.800,306.400 202.800 C 306.620 202.800,306.800 203.160,306.800 203.600 C 306.800 204.040,306.980 204.400,307.200 204.400 C 307.460 204.400,307.600 209.733,307.600 219.600 L 307.600 234.800 315.400 234.800 L 323.200 234.800 323.200 217.024 C 323.200 205.604,323.057 199.159,322.800 199.000 C 322.580 198.864,322.400 198.133,322.400 197.376 C 322.400 196.619,322.220 196.000,322.000 196.000 C 321.780 196.000,321.600 195.728,321.600 195.395 C 321.600 194.623,320.801 193.196,319.900 192.357 C 319.515 191.999,319.200 191.494,319.200 191.235 C 319.200 190.594,317.363 188.800,316.706 188.800 C 316.415 188.800,315.917 188.440,315.600 188.000 C 315.261 187.530,314.565 187.200,313.912 187.200 C 313.300 187.200,312.800 187.020,312.800 186.800 C 312.800 186.580,312.260 186.400,311.600 186.400 C 310.940 186.400,310.400 186.220,310.400 186.000 C 310.400 185.759,308.733 185.600,306.200 185.600 C 303.667 185.600,302.000 185.759,302.000 186.000 M159.200 186.800 C 159.200 187.020,158.300 187.200,157.200 187.200 C 156.100 187.200,155.200 187.380,155.200 187.600 C 155.200 187.820,154.840 188.000,154.400 188.000 C 153.960 188.000,153.600 188.180,153.600 188.400 C 153.600 188.620,153.316 188.800,152.969 188.800 C 152.621 188.800,151.646 189.520,150.800 190.400 C 148.826 192.455,148.800 192.444,148.800 189.600 L 148.800 187.200 141.400 187.200 L 134.000 187.200 134.000 211.000 L 134.000 234.800 141.800 234.800 L 149.600 234.800 149.600 221.800 C 149.600 213.400,149.742 208.800,150.000 208.800 C 150.220 208.800,150.400 208.350,150.400 207.800 C 150.400 207.250,150.580 206.800,150.800 206.800 C 151.020 206.800,151.200 206.525,151.200 206.189 C 151.200 205.396,154.596 202.000,155.389 202.000 C 155.725 202.000,156.000 201.820,156.000 201.600 C 156.000 201.380,156.630 201.200,157.400 201.200 C 158.170 201.200,158.800 201.020,158.800 200.800 C 158.800 200.580,159.509 200.400,160.376 200.400 C 161.243 200.400,162.064 200.580,162.200 200.800 C 162.336 201.020,162.887 201.200,163.424 201.200 L 164.400 201.200 164.400 194.200 C 164.400 187.467,164.370 187.200,163.600 187.200 C 163.160 187.200,162.800 187.020,162.800 186.800 C 162.800 186.580,161.990 186.400,161.000 186.400 C 160.010 186.400,159.200 186.580,159.200 186.800 M38.800 188.000 C 38.800 188.440,38.980 188.800,39.200 188.800 C 39.420 188.800,39.600 189.340,39.600 190.000 C 39.600 190.660,39.780 191.200,40.000 191.200 C 40.220 191.200,40.400 191.650,40.400 192.200 C 40.400 192.750,40.580 193.200,40.800 193.200 C 41.020 193.200,41.200 193.740,41.200 194.400 C 41.200 195.060,41.380 195.600,41.600 195.600 C 41.820 195.600,42.000 196.140,42.000 196.800 C 42.000 197.460,42.180 198.000,42.400 198.000 C 42.620 198.000,42.800 198.540,42.800 199.200 C 42.800 199.860,42.956 200.400,43.146 200.400 C 43.336 200.400,43.603 201.212,43.739 202.205 C 43.875 203.198,44.349 204.761,44.793 205.680 C 45.237 206.599,45.600 207.676,45.600 208.075 C 45.600 208.474,45.780 208.800,46.000 208.800 C 46.220 208.800,46.400 209.340,46.400 210.000 C 46.400 210.660,46.580 211.200,46.800 211.200 C 47.020 211.200,47.200 211.740,47.200 212.400 C 47.200 213.060,47.380 213.600,47.600 213.600 C 47.820 213.600,48.000 214.140,48.000 214.800 C 48.000 215.460,48.180 216.000,48.400 216.000 C 48.620 216.000,48.800 216.540,48.800 217.200 C 48.800 217.860,48.980 218.400,49.200 218.400 C 49.420 218.400,49.600 218.839,49.600 219.376 C 49.600 219.913,49.780 220.464,50.000 220.600 C 50.220 220.736,50.400 221.287,50.400 221.824 C 50.400 222.361,50.580 222.800,50.800 222.800 C 51.020 222.800,51.200 223.250,51.200 223.800 C 51.200 224.350,51.380 224.800,51.600 224.800 C 51.820 224.800,52.000 225.250,52.000 225.800 C 52.000 226.350,52.180 226.800,52.400 226.800 C 52.620 226.800,52.800 227.340,52.800 228.000 C 52.800 228.660,52.980 229.200,53.200 229.200 C 53.420 229.200,53.600 229.740,53.600 230.400 C 53.600 231.060,53.780 231.600,54.000 231.600 C 54.220 231.600,54.400 232.063,54.400 232.629 C 54.400 234.688,54.872 234.800,63.571 234.800 C 71.333 234.800,71.600 234.773,71.600 234.000 C 71.600 233.560,71.737 233.200,71.904 233.200 C 72.071 233.200,72.654 231.760,73.200 230.000 C 73.746 228.240,74.316 226.800,74.468 226.800 C 74.619 226.800,74.866 225.810,75.017 224.600 C 75.168 223.390,75.451 222.400,75.646 222.400 C 75.841 222.400,76.000 221.860,76.000 221.200 C 76.000 220.540,76.180 220.000,76.400 220.000 C 76.620 220.000,76.800 219.460,76.800 218.800 C 76.800 218.140,76.980 217.600,77.200 217.600 C 77.420 217.600,77.600 217.060,77.600 216.400 C 77.600 215.740,77.780 215.200,78.000 215.200 C 78.220 215.200,78.400 214.840,78.400 214.400 C 78.400 213.960,78.580 213.600,78.800 213.600 C 79.020 213.600,79.200 213.060,79.200 212.400 C 79.200 211.740,79.380 211.200,79.600 211.200 C 79.820 211.200,80.000 210.660,80.000 210.000 C 80.000 209.340,80.180 208.800,80.400 208.800 C 80.620 208.800,80.800 208.361,80.800 207.824 C 80.800 207.287,80.980 206.736,81.200 206.600 C 81.420 206.464,81.600 205.913,81.600 205.376 C 81.600 204.839,81.780 204.400,82.000 204.400 C 82.220 204.400,82.400 203.860,82.400 203.200 C 82.400 202.540,82.580 202.000,82.800 202.000 C 83.020 202.000,83.200 201.460,83.200 200.800 C 83.200 200.140,83.380 199.600,83.600 199.600 C 83.820 199.600,84.000 199.060,84.000 198.400 C 84.000 197.740,84.180 197.200,84.400 197.200 C 84.620 197.200,84.800 196.840,84.800 196.400 C 84.800 195.960,84.980 195.600,85.200 195.600 C 85.420 195.600,85.600 195.060,85.600 194.400 C 85.600 193.740,85.780 193.200,86.000 193.200 C 86.220 193.200,86.400 192.761,86.400 192.224 C 86.400 191.687,86.580 191.136,86.800 191.000 C 87.020 190.864,87.200 190.349,87.200 189.856 C 87.200 189.363,87.400 188.760,87.645 188.515 C 88.749 187.411,87.454 187.200,79.576 187.200 L 71.600 187.200 71.600 188.400 C 71.600 189.060,71.420 189.600,71.200 189.600 C 70.980 189.600,70.800 190.140,70.800 190.800 C 70.800 191.460,70.620 192.000,70.400 192.000 C 70.180 192.000,70.000 192.439,70.000 192.976 C 70.000 193.513,69.820 194.064,69.600 194.200 C 69.380 194.336,69.200 194.876,69.200 195.400 C 69.200 195.924,69.020 196.464,68.800 196.600 C 68.580 196.736,68.400 197.467,68.400 198.224 C 68.400 198.981,68.220 199.600,68.000 199.600 C 67.780 199.600,67.600 200.140,67.600 200.800 C 67.600 201.460,67.420 202.000,67.200 202.000 C 66.980 202.000,66.800 202.540,66.800 203.200 C 66.800 203.860,66.620 204.400,66.400 204.400 C 66.180 204.400,66.000 205.120,66.000 206.000 C 66.000 206.880,65.820 207.600,65.600 207.600 C 65.380 207.600,65.200 208.140,65.200 208.800 C 65.200 209.460,65.020 210.000,64.800 210.000 C 64.580 210.000,64.400 210.439,64.400 210.976 C 64.400 211.513,64.220 212.064,64.000 212.200 C 63.780 212.336,63.600 212.887,63.600 213.424 C 63.600 213.961,63.420 214.400,63.200 214.400 C 62.980 214.400,62.800 213.781,62.800 213.024 C 62.800 212.267,62.620 211.536,62.400 211.400 C 62.180 211.264,62.000 210.713,62.000 210.176 C 62.000 209.639,61.820 209.200,61.600 209.200 C 61.380 209.200,61.200 208.660,61.200 208.000 C 61.200 207.340,61.020 206.800,60.800 206.800 C 60.580 206.800,60.400 206.080,60.400 205.200 C 60.400 204.320,60.220 203.600,60.000 203.600 C 59.780 203.600,59.600 203.060,59.600 202.400 C 59.600 201.740,59.438 201.200,59.239 201.200 C 59.041 201.200,58.753 200.120,58.600 198.799 C 58.447 197.479,58.159 196.298,57.961 196.176 C 57.762 196.053,57.600 195.423,57.600 194.776 C 57.600 194.129,57.420 193.600,57.200 193.600 C 56.980 193.600,56.800 193.060,56.800 192.400 C 56.800 191.740,56.620 191.200,56.400 191.200 C 56.180 191.200,56.000 190.660,56.000 190.000 C 56.000 189.340,55.820 188.800,55.600 188.800 C 55.380 188.800,55.200 188.440,55.200 188.000 C 55.200 187.226,54.933 187.200,47.000 187.200 C 39.067 187.200,38.800 187.226,38.800 188.000 M166.800 211.000 L 166.800 234.800 174.600 234.800 L 182.400 234.800 182.400 211.000 L 182.400 187.200 174.600 187.200 L 166.800 187.200 166.800 211.000 M184.800 193.400 L 184.800 199.600 195.000 199.600 C 200.610 199.600,205.200 199.704,205.200 199.831 C 205.200 199.959,204.480 200.754,203.600 201.600 C 202.720 202.446,202.000 203.340,202.000 203.588 C 202.000 203.836,200.783 205.245,199.297 206.719 C 197.810 208.194,195.875 210.298,194.997 211.395 C 194.118 212.492,192.365 214.417,191.100 215.673 C 189.835 216.928,188.800 218.157,188.800 218.404 C 188.800 218.650,187.900 219.729,186.800 220.800 L 184.800 222.748 184.800 228.774 L 184.800 234.800 205.400 234.800 L 226.000 234.800 226.000 228.607 L 226.000 222.413 215.426 222.307 L 204.851 222.200 206.126 220.746 C 206.827 219.946,207.670 218.883,208.000 218.384 C 208.330 217.885,209.725 216.338,211.100 214.946 C 212.475 213.554,213.600 212.222,213.600 211.986 C 213.600 211.750,215.040 210.169,216.800 208.471 C 218.560 206.774,220.000 205.258,220.000 205.103 C 220.000 204.947,221.170 203.621,222.600 202.155 L 225.200 199.490 225.200 193.345 L 225.200 187.200 205.000 187.200 L 184.800 187.200 184.800 193.400 M110.000 197.502 C 110.000 197.669,110.582 198.062,111.293 198.377 C 112.878 199.079,114.400 200.550,114.400 201.382 C 114.400 201.722,114.580 202.000,114.800 202.000 C 115.020 202.000,115.200 202.439,115.200 202.976 C 115.200 203.513,115.380 204.064,115.600 204.200 C 116.900 205.003,115.287 205.200,107.400 205.200 C 101.933 205.200,98.800 205.054,98.800 204.800 C 98.800 204.580,98.980 204.400,99.200 204.400 C 99.420 204.400,99.600 204.128,99.600 203.795 C 99.600 202.141,103.452 198.000,104.989 198.000 C 105.545 198.000,106.000 197.820,106.000 197.600 C 106.000 197.380,106.900 197.200,108.000 197.200 C 109.100 197.200,110.000 197.336,110.000 197.502 M253.600 198.400 C 253.600 198.620,253.876 198.800,254.213 198.800 C 255.009 198.800,257.600 201.391,257.600 202.187 C 257.600 202.524,257.780 202.800,258.000 202.800 C 258.220 202.800,258.400 203.160,258.400 203.600 C 258.400 204.040,258.580 204.400,258.800 204.400 C 259.020 204.400,259.200 204.839,259.200 205.376 C 259.200 205.913,259.380 206.464,259.600 206.600 C 259.825 206.739,260.000 208.671,260.000 211.024 C 260.000 213.541,259.841 215.200,259.600 215.200 C 259.380 215.200,259.200 215.920,259.200 216.800 C 259.200 217.680,259.020 218.400,258.800 218.400 C 258.580 218.400,258.400 218.675,258.400 219.011 C 258.400 219.804,255.004 223.200,254.211 223.200 C 253.875 223.200,253.600 223.380,253.600 223.600 C 253.600 223.820,253.060 224.000,252.400 224.000 C 251.740 224.000,251.200 224.180,251.200 224.400 C 251.200 224.620,250.840 224.800,250.400 224.800 C 249.960 224.800,249.600 224.620,249.600 224.400 C 249.600 224.180,249.060 224.000,248.400 224.000 C 247.740 224.000,247.200 223.820,247.200 223.600 C 247.200 223.380,246.925 223.200,246.589 223.200 C 245.814 223.200,242.400 219.813,242.400 219.044 C 242.400 218.726,242.175 218.392,241.900 218.300 C 241.526 218.175,241.400 216.431,241.400 211.400 C 241.400 206.370,241.526 204.625,241.900 204.500 C 242.175 204.408,242.400 203.894,242.400 203.356 C 242.400 202.259,245.580 198.800,246.589 198.800 C 246.925 198.800,247.200 198.620,247.200 198.400 C 247.200 198.167,248.533 198.000,250.400 198.000 C 252.267 198.000,253.600 198.167,253.600 198.400 " stroke="none" fill="#000000" fill-rule="evenodd"></path><path id="path1" d="" stroke="none" fill="#550000" fill-rule="evenodd"></path><path id="path2" d="" stroke="none" fill="#990000" fill-rule="evenodd"></path><path id="path3" d="M353.184 163.860 C 352.845 163.951,352.279 164.605,351.927 165.313 C 350.017 169.145,347.584 174.524,347.365 175.398 C 347.226 175.949,346.953 176.400,346.757 176.400 C 346.560 176.400,346.400 176.688,346.400 177.039 C 346.400 177.391,345.590 179.344,344.600 181.379 C 343.610 183.414,342.800 185.287,342.800 185.540 C 342.800 185.793,342.620 186.000,342.400 186.000 C 342.180 186.000,342.000 186.450,342.000 187.000 C 342.000 187.550,341.820 188.000,341.600 188.000 C 341.380 188.000,341.200 188.360,341.200 188.800 C 341.200 189.240,341.020 189.600,340.800 189.600 C 340.580 189.600,340.400 189.960,340.400 190.400 C 340.400 190.840,340.220 191.200,340.000 191.200 C 339.780 191.200,339.600 191.426,339.600 191.702 C 339.600 191.978,338.733 193.953,337.674 196.091 L 335.748 199.977 334.874 198.178 C 334.393 197.188,334.000 196.113,334.000 195.789 C 334.000 195.465,333.865 195.199,333.700 195.197 C 333.341 195.193,332.400 193.256,332.400 192.520 C 332.400 192.234,332.220 192.000,332.000 192.000 C 331.780 192.000,331.600 191.640,331.600 191.200 C 331.600 190.760,331.420 190.400,331.200 190.400 C 330.980 190.400,330.800 190.040,330.800 189.600 C 330.800 189.160,330.620 188.800,330.400 188.800 C 330.180 188.800,330.000 188.440,330.000 188.000 C 330.000 187.251,329.733 187.200,325.800 187.200 C 321.257 187.200,320.902 187.424,322.000 189.605 C 322.220 190.042,322.580 190.758,322.800 191.195 C 323.020 191.632,323.200 192.262,323.200 192.595 C 323.200 192.928,323.380 193.200,323.600 193.200 C 323.820 193.200,324.000 193.560,324.000 194.000 C 324.000 194.440,324.135 194.801,324.300 194.803 C 324.659 194.807,325.600 196.744,325.600 197.480 C 325.600 197.766,325.780 198.000,326.000 198.000 C 326.220 198.000,326.400 198.360,326.400 198.800 C 326.400 199.240,326.580 199.600,326.800 199.600 C 327.020 199.600,327.200 199.865,327.200 200.188 C 327.200 200.511,327.558 201.412,327.995 202.191 C 328.432 202.969,328.815 203.740,328.846 203.903 C 328.992 204.679,329.374 205.577,330.442 207.656 C 331.079 208.897,331.600 210.202,331.600 210.556 C 331.600 210.910,331.870 211.200,332.200 211.200 C 332.530 211.200,332.800 211.380,332.800 211.600 C 332.800 211.833,334.108 212.000,335.923 212.000 L 339.045 212.000 340.377 209.100 C 341.109 207.505,342.044 205.508,342.454 204.662 C 342.864 203.816,343.200 202.871,343.200 202.562 C 343.200 202.253,343.380 202.000,343.600 202.000 C 343.820 202.000,344.000 201.640,344.000 201.200 C 344.000 200.760,344.180 200.400,344.400 200.400 C 344.620 200.400,344.800 200.166,344.800 199.880 C 344.800 199.144,345.741 197.207,346.100 197.203 C 346.265 197.201,346.400 196.928,346.400 196.595 C 346.400 196.262,346.566 195.677,346.769 195.295 C 348.200 192.599,350.400 187.777,350.400 187.335 C 350.400 187.041,350.580 186.800,350.800 186.800 C 351.020 186.800,351.200 186.566,351.200 186.280 C 351.200 185.544,352.141 183.607,352.500 183.603 C 352.665 183.601,352.800 183.386,352.800 183.124 C 352.800 182.862,353.317 181.557,353.950 180.224 C 354.582 178.891,355.948 175.910,356.986 173.600 C 358.023 171.290,359.035 169.087,359.236 168.705 C 359.436 168.323,359.600 167.738,359.600 167.405 C 359.600 167.072,359.736 166.800,359.902 166.800 C 360.758 166.800,361.063 164.057,360.231 163.834 C 359.298 163.584,354.134 163.602,353.184 163.860 " stroke="none" fill="#e32526" fill-rule="evenodd"></path><path id="path4" d="M345.600 178.188 C 345.600 178.511,345.236 179.425,344.790 180.218 C 344.345 181.011,344.160 181.548,344.379 181.413 C 344.599 181.277,345.084 180.499,345.457 179.683 C 345.829 178.867,346.205 178.065,346.291 177.900 C 346.377 177.735,346.257 177.600,346.024 177.600 C 345.791 177.600,345.600 177.865,345.600 178.188 M327.660 202.400 C 327.890 203.060,328.227 203.600,328.408 203.600 C 328.590 203.600,328.469 203.060,328.140 202.400 C 327.811 201.740,327.474 201.200,327.392 201.200 C 327.309 201.200,327.430 201.740,327.660 202.400 " stroke="none" fill="#ff0000" fill-rule="evenodd"></path></g></svg>