<svg id="Layer_1" data-name="Layer 1" xmlns="http://www.w3.org/2000/svg" xmlns:xlink="http://www.w3.org/1999/xlink" viewBox="0 0 630 369"><defs><style>.cls-1{fill:url(#linear-gradient);}.cls-2,.cls-4{fill:#fff;}.cls-2{stroke:#000;stroke-miterlimit:10;}.cls-3{opacity:0.25;}.cls-5{fill:#ed1c24;}.cls-6{fill:#f2f2f2;}.cls-7,.cls-8{fill:gray;}.cls-7{opacity:0.61;}.cls-8{opacity:0.6;}.cls-9{fill:#29abe2;opacity:0.58;}</style><linearGradient id="linear-gradient" x1="-124.85" y1="184.5" x2="25.51" y2="184.5" gradientUnits="userSpaceOnUse"><stop offset="0.02" stop-color="#fff"/><stop offset="0.86" stop-color="#ed1c24"/><stop offset="0.89" stop-color="#ed1c24"/></linearGradient></defs><title>Profile_c</title><rect class="cls-1" width="630" height="369"/><rect class="cls-2" x="94.06" y="108" width="118" height="153"/><rect class="cls-3" x="77.79" y="87.19" width="418" height="210" rx="25" ry="25"/><rect class="cls-4" x="70.79" y="79.5" width="418" height="210" rx="25" ry="25"/><rect class="cls-5" x="94.06" y="104" width="120" height="157"/><circle class="cls-6" cx="153.06" cy="151" r="25"/><path class="cls-6" d="M329.55,314.47V340a92.74,92.74,0,0,1-75,0V314.47a25.07,25.07,0,0,1,25-25h25A25.07,25.07,0,0,1,329.55,314.47Z" transform="translate(-140 -105.45)"/><rect class="cls-7" x="302.06" y="99" width="164" height="27" rx="13.5" ry="13.5"/><rect class="cls-8" x="302.06" y="143.68" width="164" height="27" rx="13.5" ry="13.5"/><rect class="cls-9" x="302.06" y="188.37" width="99.06" height="27" rx="13.5" ry="13.5"/><rect class="cls-7" x="302.06" y="234" width="164" height="27" rx="13.5" ry="13.5"/><rect class="cls-9" x="407.08" y="188.37" width="53.98" height="27" rx="13.5" ry="13.5"/></svg>