<svg xmlns="http://www.w3.org/2000/svg" xmlns:xlink="http://www.w3.org/1999/xlink" viewBox="0 0 630 369"><defs><style>.cls-1{fill:url(#linear-gradient);}.cls-2{fill:#666;opacity:0.26;}.cls-3{fill:#f2f2f2;}</style><linearGradient id="linear-gradient" x1="-124.85" y1="184.5" x2="25.51" y2="184.5" gradientUnits="userSpaceOnUse"><stop offset="0.02" stop-color="#fff"/><stop offset="0.86" stop-color="#ed1c24"/><stop offset="0.89" stop-color="#ed1c24"/></linearGradient></defs><title>Status_c</title><g id="Main_Circle" data-name="Main Circle"><rect class="cls-1" width="630" height="369"/><rect class="cls-2" x="125" y="52.25" width="265" height="27" rx="13.5" ry="13.5"/><rect class="cls-3" x="123" y="47.93" width="265" height="27" rx="13.5" ry="13.5"/><rect class="cls-2" x="125" y="178.8" width="207.79" height="27" rx="13.5" ry="13.5"/><rect class="cls-3" x="123" y="174.93" width="209.79" height="27" rx="13.5" ry="13.5"/><rect class="cls-2" x="125" y="115.53" width="234.46" height="27" rx="13.5" ry="13.5"/><rect class="cls-3" x="123" y="111.43" width="236.46" height="27" rx="13.5" ry="13.5"/><rect class="cls-2" x="125" y="242.53" width="265" height="27" rx="13.5" ry="13.5"/><rect class="cls-3" x="123" y="238.43" width="265" height="27" rx="13.5" ry="13.5"/><rect class="cls-2" x="125" y="306.03" width="194.7" height="27" rx="13.5" ry="13.5"/><rect class="cls-3" x="123" y="301.93" width="196.7" height="27" rx="13.5" ry="13.5"/><ellipse class="cls-3" cx="88.46" cy="50.74" rx="7.83" ry="8.04"/><path class="cls-3" d="M227.84,172.13v8.21a28.35,28.35,0,0,1-23.5,0v-8.21a8,8,0,0,1,7.84-8H220A8,8,0,0,1,227.84,172.13Z" transform="translate(-127.94 -102.74)"/><ellipse class="cls-3" cx="88.46" cy="109.01" rx="7.83" ry="8.04"/><path class="cls-3" d="M227.84,230.4v8.22a28.45,28.45,0,0,1-23.5,0V230.4a8,8,0,0,1,7.83-8H220A8,8,0,0,1,227.84,230.4Z" transform="translate(-127.94 -102.74)"/><ellipse class="cls-3" cx="88.77" cy="176.46" rx="7.83" ry="8.04"/><path class="cls-3" d="M228.15,297.85v8.22a28.45,28.45,0,0,1-23.5,0v-8.22a8,8,0,0,1,7.84-8h7.83A8,8,0,0,1,228.15,297.85Z" transform="translate(-127.94 -102.74)"/><ellipse class="cls-3" cx="88.46" cy="236.01" rx="7.83" ry="8.04"/><path class="cls-3" d="M227.84,357.4v8.22a28.45,28.45,0,0,1-23.5,0V357.4a8,8,0,0,1,7.83-8H220A8,8,0,0,1,227.84,357.4Z" transform="translate(-127.94 -102.74)"/><ellipse class="cls-3" cx="89.09" cy="299.51" rx="7.83" ry="8.04"/><path class="cls-3" d="M228.47,420.9v8.22a28.45,28.45,0,0,1-23.5,0V420.9a8,8,0,0,1,7.83-8h7.83A8,8,0,0,1,228.47,420.9Z" transform="translate(-127.94 -102.74)"/></g></svg>