<svg id="svg" version="1.1" width="100" height="100" viewBox="0 0 400 400" xmlns="http://www.w3.org/2000/svg" xmlns:xlink="http://www.w3.org/1999/xlink" ><g id="svgg"><path id="path0" d="M0.000 200.000 L 0.000 400.000 200.000 400.000 L 400.000 400.000 400.000 200.000 L 400.000 0.000 200.000 0.000 L 0.000 0.000 0.000 200.000 M374.000 23.600 C 374.550 24.030,375.210 24.386,375.466 24.391 C 376.272 24.406,379.200 27.409,379.202 28.223 C 379.204 28.650,379.500 29.540,379.862 30.200 C 380.877 32.055,380.879 368.352,379.864 370.200 C 379.501 370.860,379.204 371.610,379.202 371.867 C 379.199 372.515,376.377 375.600,375.788 375.600 C 375.524 375.600,374.793 376.005,374.164 376.500 L 373.020 377.400 201.600 377.400 L 30.180 377.400 29.036 376.500 C 28.407 376.005,27.719 375.600,27.507 375.600 C 26.842 375.600,25.002 373.371,23.878 371.205 L 22.800 369.126 22.803 200.063 C 22.805 32.045,22.810 30.993,23.600 29.800 C 24.037 29.140,24.396 28.289,24.397 27.909 C 24.399 27.529,24.850 26.924,25.400 26.563 C 25.950 26.203,26.400 25.676,26.400 25.393 C 26.400 25.110,26.895 24.698,27.500 24.479 C 28.105 24.259,28.960 23.797,29.400 23.452 C 30.800 22.356,372.597 22.502,374.000 23.600 M165.800 88.822 C 164.920 89.238,163.795 89.584,163.300 89.590 C 162.771 89.596,162.400 89.848,162.400 90.200 C 162.400 90.530,162.226 90.800,162.014 90.800 C 161.801 90.800,161.104 91.295,160.463 91.900 C 159.823 92.505,158.616 93.540,157.782 94.200 C 156.948 94.860,155.985 95.715,155.644 96.100 C 155.302 96.485,154.799 96.800,154.525 96.800 C 154.252 96.800,153.835 97.160,153.600 97.600 C 153.365 98.040,152.977 98.400,152.739 98.400 C 152.501 98.400,151.608 99.120,150.754 100.000 C 149.900 100.880,149.031 101.600,148.823 101.600 C 148.615 101.600,148.210 101.915,147.921 102.300 C 147.359 103.052,144.194 105.600,143.823 105.600 C 143.700 105.600,142.900 106.320,142.046 107.200 C 141.192 108.080,140.358 108.800,140.193 108.800 C 140.027 108.800,139.496 109.205,139.012 109.700 C 138.528 110.195,137.532 111.050,136.798 111.600 C 136.065 112.150,135.037 113.005,134.514 113.500 C 133.991 113.995,133.302 114.400,132.982 114.400 C 132.662 114.400,132.400 114.676,132.400 115.013 C 132.400 115.349,132.085 115.741,131.700 115.883 C 131.315 116.024,130.625 116.514,130.167 116.970 C 129.709 117.427,128.564 118.430,127.624 119.200 C 126.683 119.970,125.676 120.825,125.385 121.100 C 125.095 121.375,124.574 121.600,124.229 121.600 C 123.883 121.600,123.600 121.864,123.600 122.186 C 123.600 122.508,123.226 122.972,122.770 123.216 C 121.975 123.642,121.162 124.315,119.386 126.019 C 118.938 126.449,118.353 126.800,118.086 126.800 C 117.819 126.800,117.600 126.965,117.600 127.166 C 117.600 127.367,116.655 128.264,115.500 129.158 C 114.345 130.053,113.034 131.148,112.586 131.592 C 112.138 132.037,111.643 132.400,111.485 132.400 C 111.328 132.400,110.500 133.120,109.646 134.000 C 108.792 134.880,107.933 135.600,107.736 135.600 C 107.539 135.600,107.098 135.915,106.757 136.300 C 106.415 136.685,105.439 137.540,104.588 138.200 C 103.737 138.860,102.625 139.760,102.117 140.200 C 101.608 140.640,100.719 141.360,100.140 141.800 C 99.561 142.240,98.687 143.005,98.198 143.500 C 97.161 144.549,96.078 144.667,95.733 143.769 C 95.600 143.423,95.065 142.977,94.545 142.779 C 94.025 142.582,93.600 142.145,93.600 141.810 C 93.600 141.474,93.414 141.200,93.187 141.200 C 92.649 141.200,90.000 138.551,90.000 138.013 C 90.000 137.786,89.713 137.600,89.363 137.600 C 89.012 137.600,88.631 137.240,88.516 136.800 C 88.401 136.360,88.127 136.000,87.907 136.000 C 87.687 136.000,86.289 134.740,84.800 133.200 C 83.311 131.660,81.958 130.400,81.793 130.400 C 81.629 130.400,81.188 130.048,80.815 129.617 C 80.441 129.186,79.257 128.637,78.184 128.396 C 77.111 128.156,76.045 127.811,75.816 127.630 C 74.766 126.800,71.806 126.779,70.215 127.591 C 69.344 128.036,68.318 128.400,67.936 128.400 C 67.057 128.400,62.400 132.245,62.400 132.972 C 62.400 133.270,62.130 133.618,61.800 133.745 C 61.470 133.871,61.194 134.296,61.187 134.687 C 61.180 135.079,60.825 136.390,60.399 137.600 L 59.624 139.800 60.512 143.392 C 61.000 145.367,61.670 147.275,62.000 147.631 C 67.891 153.990,87.572 173.298,88.800 173.923 C 89.350 174.203,90.250 174.692,90.800 175.010 C 92.671 176.092,99.952 175.816,101.600 174.600 C 102.345 174.050,103.280 173.600,103.678 173.600 C 104.075 173.600,104.400 173.330,104.400 173.000 C 104.400 172.670,104.574 172.400,104.786 172.400 C 104.999 172.400,105.696 171.905,106.337 171.300 C 106.977 170.695,108.184 169.660,109.018 169.000 C 109.852 168.340,110.815 167.485,111.156 167.100 C 111.498 166.715,112.001 166.400,112.275 166.400 C 112.548 166.400,112.965 166.040,113.200 165.600 C 113.435 165.160,113.823 164.800,114.061 164.800 C 114.299 164.800,115.192 164.080,116.046 163.200 C 116.900 162.320,117.769 161.600,117.977 161.600 C 118.185 161.600,118.590 161.285,118.879 160.900 C 119.167 160.515,120.212 159.580,121.201 158.821 C 123.302 157.212,124.622 156.076,125.528 155.100 C 125.885 154.715,126.387 154.400,126.643 154.400 C 126.899 154.400,127.403 153.950,127.763 153.400 C 128.124 152.850,128.572 152.400,128.759 152.400 C 128.946 152.400,129.797 151.752,130.650 150.960 C 131.502 150.167,132.650 149.225,133.200 148.867 C 133.750 148.508,134.435 147.896,134.723 147.507 C 135.010 147.118,135.505 146.800,135.823 146.800 C 136.140 146.800,136.400 146.530,136.400 146.200 C 136.400 145.870,136.580 145.600,136.800 145.600 C 137.020 145.600,137.520 145.285,137.911 144.900 C 138.303 144.515,139.291 143.750,140.109 143.200 C 140.926 142.650,141.596 142.065,141.597 141.900 C 141.599 141.735,141.804 141.600,142.054 141.600 C 142.304 141.600,142.911 141.195,143.403 140.700 C 144.833 139.263,146.437 138.000,146.834 138.000 C 147.035 138.000,147.200 137.730,147.200 137.400 C 147.200 137.070,147.374 136.800,147.586 136.800 C 147.799 136.800,148.494 136.305,149.132 135.700 C 149.770 135.095,150.799 134.240,151.417 133.800 C 152.036 133.360,153.191 132.460,153.985 131.800 C 154.778 131.140,155.753 130.330,156.151 130.000 C 156.550 129.670,157.284 128.995,157.784 128.500 C 158.283 128.005,158.896 127.600,159.146 127.600 C 159.396 127.600,159.600 127.442,159.600 127.249 C 159.600 127.055,160.629 126.110,161.886 125.149 C 164.676 123.014,165.354 122.455,166.556 121.300 C 167.070 120.805,167.696 120.400,167.946 120.400 C 168.196 120.400,168.400 120.261,168.400 120.091 C 168.400 119.714,174.241 114.800,174.689 114.800 C 174.864 114.800,175.232 114.440,175.507 114.000 C 175.782 113.560,176.263 113.200,176.576 113.200 C 176.890 113.200,177.260 112.840,177.400 112.400 C 177.540 111.960,177.840 111.600,178.066 111.600 C 178.529 111.600,180.800 109.284,180.800 108.812 C 180.800 108.645,181.205 107.993,181.700 107.363 C 182.925 105.805,183.079 96.621,181.900 95.443 C 181.515 95.058,181.200 94.576,181.200 94.371 C 181.200 93.871,178.104 90.800,177.600 90.800 C 177.380 90.800,177.200 90.530,177.200 90.200 C 177.200 89.843,176.833 89.600,176.294 89.600 C 175.796 89.600,174.716 89.240,173.896 88.800 C 171.939 87.752,168.040 87.762,165.800 88.822 M176.607 152.389 C 176.475 152.603,175.609 152.997,174.683 153.265 C 171.733 154.118,167.604 157.960,167.598 159.858 C 167.596 160.266,167.313 161.140,166.968 161.800 C 165.869 163.903,165.781 166.535,166.747 168.388 C 167.216 169.288,167.600 170.393,167.600 170.843 C 167.600 172.662,172.767 176.921,176.032 177.793 C 179.715 178.776,325.031 179.165,328.200 178.200 C 329.080 177.932,330.575 177.497,331.521 177.234 C 332.468 176.971,333.342 176.495,333.464 176.178 C 333.586 175.860,334.031 175.600,334.453 175.600 C 334.903 175.600,335.377 175.187,335.600 174.600 C 335.809 174.050,336.235 173.600,336.546 173.600 C 336.874 173.600,337.220 173.018,337.372 172.211 C 337.515 171.447,337.940 170.650,338.316 170.439 C 341.843 168.468,336.682 153.600,332.471 153.600 C 332.095 153.600,331.116 153.240,330.296 152.800 C 328.616 151.900,177.159 151.495,176.607 152.389 M166.514 229.952 C 165.587 230.116,164.493 230.554,164.083 230.925 C 163.673 231.296,163.154 231.600,162.930 231.600 C 162.706 231.600,162.090 231.960,161.561 232.401 C 161.033 232.842,160.004 233.697,159.276 234.301 C 158.548 234.905,157.653 235.715,157.287 236.100 C 156.921 236.485,156.477 236.800,156.301 236.800 C 156.124 236.800,155.183 237.565,154.210 238.500 C 153.238 239.435,151.716 240.740,150.828 241.400 C 149.175 242.629,146.061 245.297,144.558 246.773 C 144.095 247.228,143.575 247.600,143.404 247.600 C 143.232 247.600,142.688 248.005,142.195 248.500 C 141.228 249.470,139.493 250.920,137.767 252.200 C 137.173 252.640,136.287 253.405,135.798 253.900 C 135.309 254.395,134.817 254.800,134.704 254.800 C 134.592 254.800,133.803 255.448,132.950 256.240 C 132.098 257.033,130.950 257.975,130.400 258.333 C 129.850 258.692,129.165 259.304,128.877 259.693 C 128.590 260.082,128.138 260.400,127.874 260.400 C 127.609 260.400,127.168 260.760,126.893 261.200 C 126.618 261.640,126.229 262.000,126.029 262.000 C 125.829 262.000,124.886 262.713,123.933 263.584 C 121.994 265.356,121.730 265.582,119.116 267.700 C 118.098 268.525,117.114 269.200,116.929 269.200 C 116.744 269.200,116.368 269.560,116.093 270.000 C 115.818 270.440,115.337 270.800,115.024 270.800 C 114.710 270.800,114.340 271.160,114.200 271.600 C 114.060 272.040,113.754 272.400,113.519 272.400 C 113.284 272.400,112.696 272.805,112.212 273.300 C 111.728 273.795,110.740 274.650,110.017 275.200 C 109.294 275.750,108.248 276.605,107.693 277.100 C 107.137 277.595,106.452 278.000,106.169 278.000 C 105.885 278.000,105.540 278.360,105.400 278.800 C 105.260 279.240,104.954 279.600,104.719 279.600 C 104.484 279.600,103.883 280.005,103.384 280.500 C 102.884 280.995,102.150 281.670,101.751 282.000 C 101.353 282.330,100.307 283.203,99.427 283.941 C 96.583 286.323,96.036 286.034,87.861 277.844 C 83.994 273.970,80.578 270.800,80.269 270.800 C 79.960 270.800,79.193 270.395,78.564 269.900 C 77.534 269.090,76.977 269.000,73.010 269.000 C 68.970 269.000,68.524 269.076,67.700 269.900 C 67.205 270.395,66.521 270.800,66.180 270.800 C 65.532 270.800,62.800 273.236,62.800 273.815 C 62.800 273.998,62.469 274.520,62.065 274.974 C 61.002 276.168,59.387 281.947,59.957 282.517 C 60.201 282.761,60.400 283.398,60.400 283.934 C 60.400 285.473,61.268 288.123,62.068 289.026 C 62.471 289.480,62.800 289.999,62.800 290.179 C 62.800 290.618,65.559 293.200,66.028 293.200 C 66.233 293.200,66.400 293.372,66.400 293.582 C 66.400 294.091,73.723 301.408,74.551 301.726 C 74.908 301.863,75.200 302.168,75.200 302.405 C 75.200 302.880,79.564 307.200,80.044 307.200 C 80.210 307.200,80.454 307.541,80.586 307.957 C 80.718 308.373,81.181 308.806,81.613 308.919 C 82.046 309.033,82.400 309.400,82.400 309.736 C 82.400 310.071,82.760 310.460,83.200 310.600 C 83.640 310.740,84.000 310.995,84.000 311.168 C 84.000 312.183,88.593 315.722,90.472 316.155 C 91.062 316.290,91.814 316.671,92.143 317.001 C 92.957 317.814,99.014 317.861,99.323 317.056 C 99.438 316.757,100.357 316.304,101.366 316.050 C 102.375 315.796,103.200 315.416,103.200 315.205 C 103.200 314.993,103.695 314.561,104.300 314.243 C 104.905 313.925,106.098 313.021,106.950 312.233 C 107.803 311.445,108.637 310.800,108.804 310.800 C 108.971 310.800,109.403 310.350,109.763 309.800 C 110.124 309.250,110.684 308.800,111.009 308.800 C 111.334 308.800,111.600 308.653,111.600 308.474 C 111.600 308.295,112.965 307.080,114.632 305.774 C 116.300 304.468,118.042 302.995,118.504 302.500 C 118.966 302.005,119.582 301.600,119.872 301.600 C 120.162 301.600,120.400 301.330,120.400 301.000 C 120.400 300.670,120.574 300.400,120.786 300.400 C 120.999 300.400,121.700 299.905,122.345 299.300 C 122.991 298.695,123.999 297.840,124.587 297.400 C 125.175 296.960,126.210 296.105,126.887 295.500 C 127.565 294.895,128.362 294.400,128.659 294.400 C 128.957 294.400,129.200 294.124,129.200 293.787 C 129.200 293.451,129.515 293.059,129.900 292.917 C 130.285 292.776,130.981 292.286,131.446 291.830 C 132.971 290.334,136.073 287.810,136.998 287.312 C 137.497 287.044,138.011 286.549,138.140 286.212 C 138.269 285.875,138.644 285.600,138.973 285.600 C 139.303 285.600,139.765 285.240,140.000 284.800 C 140.235 284.360,140.683 284.000,140.994 284.000 C 141.306 284.000,141.704 283.759,141.880 283.465 C 142.297 282.768,147.481 278.400,147.892 278.400 C 148.065 278.400,148.432 278.040,148.707 277.600 C 148.982 277.160,149.466 276.800,149.784 276.800 C 150.101 276.800,150.504 276.557,150.680 276.260 C 151.045 275.644,158.198 269.600,158.562 269.600 C 158.694 269.600,159.500 268.880,160.354 268.000 C 161.208 267.120,162.042 266.400,162.207 266.400 C 162.373 266.400,162.911 265.995,163.404 265.500 C 163.897 265.005,164.865 264.150,165.556 263.600 C 166.246 263.050,167.201 262.195,167.678 261.700 C 168.154 261.205,168.716 260.800,168.926 260.800 C 169.136 260.800,169.709 260.395,170.198 259.900 C 171.124 258.964,171.657 258.512,177.072 254.079 C 178.886 252.594,180.563 250.865,180.834 250.200 C 181.103 249.540,181.611 248.767,181.962 248.482 C 183.337 247.367,182.848 238.167,181.295 235.941 C 179.926 233.977,177.447 231.600,176.770 231.600 C 176.549 231.600,175.880 231.247,175.284 230.815 C 174.048 229.920,169.325 229.455,166.514 229.952 M176.344 286.694 C 175.153 286.788,174.235 287.120,173.782 287.620 C 173.394 288.049,172.869 288.400,172.616 288.400 C 172.003 288.400,169.200 290.988,169.200 291.554 C 169.200 291.799,169.016 292.000,168.791 292.000 C 168.567 292.000,168.186 292.495,167.946 293.100 C 167.706 293.705,167.146 294.986,166.703 295.946 C 165.859 297.777,165.882 301.494,166.744 302.533 C 166.962 302.796,167.355 303.863,167.618 304.905 C 167.880 305.947,168.257 306.800,168.456 306.800 C 168.655 306.800,169.022 307.250,169.273 307.800 C 169.523 308.350,169.963 308.800,170.250 308.800 C 170.537 308.800,170.957 309.145,171.183 309.567 C 171.409 309.990,172.116 310.450,172.755 310.590 C 173.394 310.731,174.234 311.195,174.621 311.623 C 175.744 312.864,329.074 312.840,331.110 311.599 C 331.830 311.159,332.618 310.800,332.862 310.800 C 333.551 310.800,336.818 307.536,337.466 306.200 C 337.786 305.540,338.305 304.550,338.618 304.000 C 339.397 302.633,339.397 296.167,338.618 294.800 C 338.305 294.250,337.795 293.260,337.485 292.600 C 336.866 291.281,333.875 288.400,333.125 288.400 C 332.864 288.400,332.220 287.995,331.694 287.500 L 330.736 286.600 254.468 286.574 C 212.521 286.560,177.365 286.614,176.344 286.694 " stroke="none" fill="#ffffff" fill-rule="evenodd"></path><path id="path1" d="M30.645 25.176 C 28.984 25.408,28.429 25.734,26.945 27.350 L 25.200 29.250 25.200 200.000 L 25.200 370.750 26.924 372.627 C 28.361 374.192,28.975 374.558,30.624 374.828 C 33.072 375.230,369.833 375.253,372.600 374.851 C 374.553 374.568,376.800 373.082,376.800 372.074 C 376.800 371.835,377.115 371.463,377.500 371.248 C 378.165 370.876,378.200 362.310,378.200 200.128 L 378.200 29.400 377.300 28.500 C 376.805 28.005,376.400 27.420,376.400 27.200 C 376.400 26.980,376.130 26.800,375.800 26.800 C 375.470 26.800,375.200 26.549,375.200 26.243 C 375.200 25.936,374.885 25.531,374.500 25.343 C 373.677 24.940,33.523 24.775,30.645 25.176 M176.011 87.568 C 176.347 87.953,177.067 88.382,177.611 88.522 C 178.566 88.766,182.000 91.788,182.000 92.385 C 182.000 92.546,182.360 93.093,182.800 93.600 C 183.240 94.107,183.600 94.827,183.600 95.200 C 183.600 95.573,183.960 96.293,184.400 96.800 C 185.068 97.570,185.200 98.297,185.200 101.207 C 185.200 104.086,185.061 104.869,184.400 105.709 C 183.960 106.269,183.600 107.029,183.600 107.400 C 183.600 108.664,178.581 114.400,177.476 114.400 C 177.151 114.400,176.781 114.672,176.654 115.003 C 176.527 115.335,175.967 115.814,175.411 116.068 C 174.855 116.321,174.400 116.770,174.400 117.064 C 174.400 117.359,174.140 117.600,173.823 117.600 C 173.505 117.600,173.010 117.930,172.723 118.333 C 172.435 118.736,171.365 119.701,170.345 120.476 C 168.042 122.225,167.383 122.762,166.144 123.900 C 165.605 124.395,165.024 124.800,164.854 124.800 C 164.684 124.800,164.175 125.205,163.723 125.700 C 162.695 126.826,158.926 130.083,158.115 130.545 C 157.782 130.735,157.170 131.230,156.755 131.645 C 156.340 132.060,155.820 132.400,155.600 132.400 C 155.380 132.400,155.200 132.670,155.200 133.000 C 155.200 133.330,154.981 133.600,154.714 133.600 C 154.447 133.600,153.862 133.956,153.414 134.392 C 152.337 135.441,150.827 136.732,148.961 138.200 C 148.123 138.860,147.163 139.715,146.829 140.100 C 146.495 140.485,146.025 140.800,145.783 140.800 C 145.542 140.800,144.957 141.205,144.484 141.700 C 144.011 142.195,143.123 143.017,142.512 143.527 C 141.900 144.036,140.680 145.085,139.800 145.857 C 138.920 146.630,137.750 147.554,137.200 147.912 C 136.079 148.640,135.191 149.376,133.832 150.700 C 133.324 151.195,132.769 151.600,132.598 151.600 C 132.428 151.600,132.088 151.849,131.844 152.153 C 131.053 153.137,126.036 157.200,125.612 157.200 C 125.385 157.200,125.200 157.467,125.200 157.792 C 125.200 158.118,124.750 158.498,124.200 158.636 C 123.650 158.774,123.200 159.137,123.200 159.443 C 123.200 159.750,123.029 160.000,122.821 160.000 C 122.612 160.000,121.997 160.405,121.453 160.900 C 118.744 163.368,116.208 165.452,115.353 165.913 C 114.829 166.195,114.400 166.605,114.400 166.825 C 114.400 167.045,114.085 167.341,113.700 167.483 C 113.315 167.624,112.614 168.114,112.141 168.570 C 108.911 171.692,104.917 174.800,104.136 174.800 C 103.857 174.800,103.448 175.136,103.229 175.547 C 102.991 175.991,102.193 176.395,101.258 176.544 C 100.394 176.682,99.583 177.067,99.456 177.398 C 99.123 178.267,92.718 178.266,91.997 177.396 C 91.722 177.064,90.793 176.680,89.934 176.543 C 89.006 176.395,88.209 175.990,87.971 175.547 C 87.752 175.136,87.320 174.800,87.012 174.800 C 86.292 174.800,60.000 148.569,60.000 147.850 C 60.000 147.552,59.640 146.850,59.200 146.291 C 58.003 144.769,58.003 136.181,59.200 134.800 C 59.640 134.293,60.000 133.646,60.000 133.363 C 60.000 133.081,60.540 132.258,61.200 131.536 C 61.860 130.813,62.400 130.082,62.400 129.911 C 62.400 129.740,62.651 129.600,62.957 129.600 C 63.264 129.600,63.621 129.322,63.752 128.982 C 63.882 128.642,64.660 128.083,65.481 127.741 C 66.301 127.398,67.181 126.832,67.436 126.483 C 68.247 125.374,77.926 125.569,79.394 126.724 C 80.007 127.206,80.702 127.600,80.940 127.600 C 81.177 127.600,81.738 127.960,82.186 128.400 C 82.634 128.839,84.035 130.166,85.300 131.348 C 86.565 132.530,87.600 133.671,87.600 133.884 C 87.600 134.097,88.050 134.477,88.600 134.727 C 89.150 134.978,89.600 135.457,89.600 135.791 C 89.600 136.126,89.780 136.400,90.000 136.400 C 90.481 136.400,94.800 140.625,94.800 141.095 C 94.800 141.276,95.325 141.623,95.967 141.865 C 97.185 142.325,97.224 142.302,100.834 138.983 C 101.182 138.662,101.668 138.400,101.914 138.400 C 102.159 138.400,102.504 138.151,102.680 137.846 C 102.856 137.541,104.350 136.171,106.000 134.801 C 108.987 132.320,109.387 131.976,111.100 130.419 C 111.595 129.968,112.258 129.600,112.573 129.600 C 112.888 129.600,113.260 129.240,113.400 128.800 C 113.540 128.360,113.813 128.000,114.006 128.000 C 114.200 128.000,114.806 127.595,115.353 127.100 C 115.900 126.605,117.034 125.610,117.874 124.889 C 118.713 124.168,119.685 123.313,120.034 122.989 C 120.382 122.665,120.984 122.400,121.371 122.400 C 121.758 122.400,122.169 122.040,122.284 121.600 C 122.399 121.160,122.652 120.800,122.847 120.800 C 123.041 120.800,123.574 120.426,124.030 119.970 C 125.548 118.452,129.971 114.800,130.292 114.800 C 130.465 114.800,130.832 114.440,131.107 114.000 C 131.382 113.560,131.832 113.200,132.107 113.200 C 132.382 113.200,132.832 112.840,133.107 112.400 C 133.382 111.960,133.772 111.600,133.975 111.600 C 134.177 111.600,135.150 110.835,136.137 109.900 C 139.176 107.020,140.459 106.000,141.041 106.000 C 141.349 106.000,141.600 105.726,141.600 105.390 C 141.600 105.055,142.025 104.618,142.545 104.421 C 143.065 104.223,143.600 103.777,143.733 103.431 C 143.866 103.084,144.185 102.800,144.442 102.800 C 144.698 102.800,145.317 102.395,145.816 101.900 C 146.316 101.405,147.046 100.736,147.439 100.412 C 147.832 100.089,148.903 99.189,149.819 98.412 C 150.735 97.636,151.896 96.730,152.400 96.400 C 153.384 95.755,154.187 95.071,157.585 91.985 C 158.786 90.893,159.961 90.000,160.196 90.000 C 160.430 90.000,160.930 89.640,161.307 89.200 C 161.684 88.760,162.255 88.400,162.576 88.400 C 162.897 88.400,163.335 88.088,163.548 87.707 C 164.347 86.279,174.784 86.162,176.011 87.568 M332.400 151.500 C 332.800 151.995,333.406 152.400,333.745 152.400 C 334.539 152.400,338.400 155.944,338.400 156.672 C 338.400 156.976,338.668 157.328,338.996 157.454 C 339.323 157.579,339.778 158.429,340.007 159.341 C 340.236 160.254,340.688 161.478,341.012 162.062 C 341.746 163.387,341.779 167.157,341.066 168.211 C 340.773 168.645,340.303 169.843,340.021 170.874 C 339.740 171.905,339.261 172.845,338.955 172.962 C 338.650 173.079,338.400 173.388,338.400 173.648 C 338.400 174.309,334.848 177.602,333.400 178.283 C 332.740 178.594,331.750 179.105,331.200 179.420 C 329.500 180.392,174.538 180.077,173.824 179.100 C 173.542 178.715,173.008 178.400,172.638 178.400 C 172.267 178.400,171.514 177.950,170.964 177.400 C 170.414 176.850,169.788 176.400,169.573 176.400 C 169.359 176.400,168.978 175.950,168.727 175.400 C 168.477 174.850,168.048 174.400,167.775 174.400 C 167.502 174.400,167.078 173.827,166.834 173.126 C 166.590 172.425,166.081 171.511,165.704 171.094 C 164.516 169.781,164.759 160.696,166.036 158.674 C 167.364 156.573,171.440 152.400,172.165 152.400 C 172.493 152.400,172.931 152.095,173.139 151.723 C 173.807 150.530,176.033 150.498,254.535 150.549 L 331.671 150.600 332.400 151.500 M173.600 227.985 C 173.600 228.196,174.365 228.574,175.300 228.823 C 176.235 229.073,177.322 229.620,177.716 230.039 C 178.109 230.457,178.682 230.800,178.989 230.800 C 179.295 230.800,179.657 231.151,179.794 231.580 C 179.930 232.008,180.392 232.470,180.820 232.606 C 181.249 232.743,181.600 233.079,181.600 233.355 C 181.600 233.630,182.050 234.247,182.600 234.725 C 183.169 235.220,183.600 236.026,183.600 236.597 C 183.600 237.149,183.960 237.960,184.400 238.400 C 185.079 239.079,185.200 239.733,185.200 242.738 C 185.200 245.768,185.085 246.380,184.400 247.000 C 183.960 247.398,183.600 248.185,183.600 248.748 C 183.600 249.311,183.246 250.138,182.814 250.586 C 182.381 251.034,180.960 252.525,179.655 253.900 C 178.351 255.275,177.148 256.400,176.984 256.400 C 176.819 256.400,176.305 256.766,175.842 257.213 C 174.647 258.366,172.662 260.064,171.416 261.000 C 170.830 261.440,169.969 262.205,169.503 262.700 C 169.037 263.195,168.418 263.600,168.128 263.600 C 167.838 263.600,167.600 263.749,167.600 263.931 C 167.600 264.113,166.205 265.371,164.500 266.728 C 162.795 268.084,161.034 269.555,160.586 269.997 C 160.138 270.439,159.656 270.800,159.514 270.800 C 159.373 270.800,158.449 271.565,157.460 272.500 C 156.472 273.435,155.096 274.650,154.403 275.200 C 153.710 275.750,152.696 276.605,152.151 277.100 C 151.605 277.595,150.996 278.000,150.798 278.000 C 150.599 278.000,150.012 278.405,149.492 278.900 C 146.971 281.304,143.032 284.652,142.212 285.088 C 141.708 285.356,141.189 285.851,141.060 286.188 C 140.931 286.525,140.593 286.800,140.309 286.800 C 140.025 286.800,139.568 287.160,139.293 287.600 C 139.018 288.040,138.601 288.400,138.365 288.400 C 138.130 288.400,137.146 289.165,136.179 290.100 C 135.213 291.035,133.844 292.250,133.137 292.800 C 132.430 293.350,131.427 294.205,130.908 294.700 C 130.389 295.195,129.721 295.600,129.425 295.600 C 129.128 295.600,128.781 295.872,128.654 296.203 C 128.527 296.535,127.967 297.014,127.411 297.268 C 126.855 297.521,126.400 297.970,126.400 298.264 C 126.400 298.559,126.190 298.800,125.933 298.800 C 125.483 298.800,124.046 300.025,122.296 301.900 C 121.834 302.395,121.225 302.800,120.942 302.800 C 120.659 302.800,120.235 303.160,120.000 303.600 C 119.765 304.040,119.360 304.400,119.100 304.400 C 118.840 304.400,118.262 304.751,117.814 305.181 C 115.926 306.992,114.871 307.912,112.405 309.893 C 110.972 311.044,109.434 312.349,108.986 312.793 C 108.538 313.237,107.953 313.600,107.686 313.600 C 107.419 313.600,107.200 313.870,107.200 314.200 C 107.200 314.530,106.940 314.800,106.623 314.800 C 106.305 314.800,105.794 315.159,105.486 315.599 C 105.178 316.038,104.313 316.610,103.563 316.869 C 102.813 317.128,101.990 317.624,101.732 317.970 C 100.888 319.107,90.305 318.879,89.207 317.700 C 88.746 317.205,88.133 316.800,87.846 316.800 C 87.558 316.800,86.890 316.426,86.361 315.970 C 83.868 313.816,82.800 312.751,82.800 312.417 C 82.800 312.217,82.440 311.940,82.000 311.800 C 81.560 311.660,81.200 311.288,81.200 310.973 C 81.200 310.658,81.031 310.400,80.824 310.400 C 80.336 310.400,68.400 298.460,68.400 297.972 C 68.400 297.767,68.232 297.600,68.027 297.600 C 67.482 297.600,61.756 291.925,61.469 291.100 C 61.335 290.715,61.052 290.400,60.840 290.400 C 60.627 290.400,60.327 289.995,60.172 289.500 C 60.017 289.005,59.555 288.171,59.145 287.646 C 58.064 286.261,58.042 277.785,59.116 276.354 C 59.510 275.829,60.046 274.905,60.307 274.300 C 60.569 273.695,60.967 273.200,61.191 273.200 C 61.416 273.200,61.600 273.002,61.600 272.760 C 61.600 272.281,63.900 270.000,64.384 270.000 C 64.549 270.000,65.169 269.550,65.762 269.000 C 66.356 268.450,67.313 268.000,67.889 268.000 C 68.465 268.000,69.269 267.700,69.675 267.332 C 70.852 266.267,74.459 266.141,76.301 267.101 C 77.143 267.540,78.409 268.026,79.114 268.181 C 79.818 268.336,80.531 268.679,80.698 268.943 C 80.864 269.207,81.406 269.598,81.902 269.811 C 82.398 270.025,85.971 273.350,89.842 277.200 C 96.791 284.112,96.887 284.189,97.488 283.300 C 97.823 282.805,98.280 282.400,98.503 282.400 C 98.726 282.400,99.306 281.995,99.792 281.500 C 101.200 280.067,104.830 277.015,105.337 276.839 C 105.592 276.751,106.187 276.301,106.661 275.839 C 107.134 275.378,108.304 274.334,109.261 273.521 C 110.217 272.708,111.625 271.493,112.389 270.821 C 113.153 270.149,113.911 269.600,114.073 269.600 C 114.235 269.600,115.102 268.880,116.000 268.000 C 116.898 267.120,117.773 266.400,117.944 266.400 C 118.115 266.400,118.636 265.995,119.101 265.500 C 119.566 265.005,120.525 264.150,121.234 263.600 C 121.942 263.050,122.887 262.195,123.333 261.700 C 123.779 261.205,124.375 260.800,124.658 260.800 C 124.941 260.800,125.365 260.440,125.600 260.000 C 125.835 259.560,126.285 259.200,126.600 259.200 C 126.915 259.200,127.365 258.840,127.600 258.400 C 127.835 257.960,128.216 257.600,128.446 257.600 C 128.675 257.600,129.655 256.835,130.622 255.900 C 131.590 254.965,133.118 253.660,134.017 253.000 C 134.917 252.340,135.951 251.485,136.315 251.100 C 136.680 250.715,137.201 250.400,137.475 250.400 C 137.748 250.400,138.158 250.052,138.386 249.627 C 138.613 249.202,139.159 248.740,139.600 248.600 C 140.040 248.460,140.400 248.088,140.400 247.773 C 140.400 247.458,140.580 247.200,140.800 247.200 C 141.020 247.200,141.521 246.885,141.913 246.500 C 142.305 246.115,143.250 245.324,144.013 244.741 C 144.776 244.159,145.989 243.169,146.710 242.541 C 147.430 241.914,148.483 241.040,149.049 240.600 C 149.614 240.160,150.490 239.440,150.995 239.000 C 151.500 238.560,152.587 237.660,153.410 237.000 C 154.233 236.340,155.275 235.395,155.725 234.900 C 156.176 234.405,156.692 234.000,156.872 234.000 C 157.052 234.000,157.542 233.685,157.960 233.300 C 158.377 232.915,159.322 232.099,160.060 231.486 C 160.797 230.873,161.676 230.117,162.013 229.807 C 162.350 229.497,163.427 229.063,164.406 228.843 C 165.385 228.623,166.249 228.254,166.326 228.022 C 166.505 227.485,173.600 227.448,173.600 227.985 M330.081 284.939 C 330.378 285.235,331.264 285.598,332.052 285.746 C 334.027 286.116,340.000 291.973,340.000 293.540 C 340.000 293.909,340.360 294.884,340.800 295.704 C 341.837 297.639,341.837 300.854,340.800 303.000 C 340.375 303.880,340.018 304.870,340.006 305.200 C 339.929 307.431,334.244 312.856,331.443 313.371 C 330.586 313.529,329.628 313.915,329.314 314.229 C 328.470 315.073,177.549 315.092,176.705 314.248 C 176.402 313.945,175.415 313.571,174.512 313.419 C 173.610 313.266,172.557 312.795,172.174 312.371 C 171.790 311.947,171.258 311.600,170.991 311.600 C 170.372 311.600,166.800 307.635,166.800 306.948 C 166.800 306.664,166.404 306.062,165.920 305.611 C 164.567 304.351,164.567 294.319,165.920 293.371 C 166.404 293.032,166.800 292.380,166.800 291.921 C 166.800 290.648,171.277 286.527,173.313 285.927 C 174.241 285.653,175.238 285.197,175.529 284.914 C 176.332 284.133,329.300 284.157,330.081 284.939 " stroke="none" fill="#231f20" fill-rule="evenodd"></path><path id="path2" d="M30.521 24.471 C 27.704 25.364,25.605 27.321,24.728 29.872 C 23.874 32.352,23.751 366.010,24.602 369.332 C 25.545 373.010,27.155 374.598,31.200 375.839 C 34.316 376.795,369.528 376.659,372.643 375.700 C 375.433 374.841,378.227 372.228,378.693 370.041 C 379.096 368.149,379.094 32.239,378.690 30.345 C 378.182 27.958,375.610 25.412,372.720 24.436 L 370.245 23.600 201.622 23.642 C 35.147 23.684,32.968 23.694,30.521 24.471 M374.500 25.343 C 374.885 25.531,375.200 25.936,375.200 26.243 C 375.200 26.549,375.470 26.800,375.800 26.800 C 376.130 26.800,376.400 26.980,376.400 27.200 C 376.400 27.420,376.805 28.005,377.300 28.500 L 378.200 29.400 378.200 200.128 C 378.200 362.310,378.165 370.876,377.500 371.248 C 377.115 371.463,376.800 371.835,376.800 372.074 C 376.800 373.082,374.553 374.568,372.600 374.851 C 369.833 375.253,33.072 375.230,30.624 374.828 C 28.975 374.558,28.361 374.192,26.924 372.627 L 25.200 370.750 25.200 200.000 L 25.200 29.250 26.945 27.350 C 28.429 25.734,28.984 25.408,30.645 25.176 C 33.523 24.775,373.677 24.940,374.500 25.343 M166.268 86.753 C 164.668 86.932,163.814 87.232,163.548 87.707 C 163.335 88.088,162.897 88.400,162.576 88.400 C 162.255 88.400,161.684 88.760,161.307 89.200 C 160.930 89.640,160.430 90.000,160.196 90.000 C 159.961 90.000,158.786 90.893,157.585 91.985 C 154.187 95.071,153.384 95.755,152.400 96.400 C 151.896 96.730,150.735 97.636,149.819 98.412 C 148.903 99.189,147.832 100.089,147.439 100.412 C 147.046 100.736,146.316 101.405,145.816 101.900 C 145.317 102.395,144.698 102.800,144.442 102.800 C 144.185 102.800,143.866 103.084,143.733 103.431 C 143.600 103.777,143.065 104.223,142.545 104.421 C 142.025 104.618,141.600 105.055,141.600 105.390 C 141.600 105.726,141.349 106.000,141.041 106.000 C 140.459 106.000,139.176 107.020,136.137 109.900 C 135.150 110.835,134.177 111.600,133.975 111.600 C 133.772 111.600,133.382 111.960,133.107 112.400 C 132.832 112.840,132.382 113.200,132.107 113.200 C 131.832 113.200,131.382 113.560,131.107 114.000 C 130.832 114.440,130.465 114.800,130.292 114.800 C 129.971 114.800,125.548 118.452,124.030 119.970 C 123.574 120.426,123.041 120.800,122.847 120.800 C 122.652 120.800,122.399 121.160,122.284 121.600 C 122.169 122.040,121.758 122.400,121.371 122.400 C 120.984 122.400,120.382 122.665,120.034 122.989 C 119.685 123.313,118.713 124.168,117.874 124.889 C 117.034 125.610,115.900 126.605,115.353 127.100 C 114.806 127.595,114.200 128.000,114.006 128.000 C 113.813 128.000,113.540 128.360,113.400 128.800 C 113.260 129.240,112.888 129.600,112.573 129.600 C 112.258 129.600,111.595 129.968,111.100 130.419 C 109.387 131.976,108.987 132.320,106.000 134.801 C 104.350 136.171,102.856 137.541,102.680 137.846 C 102.504 138.151,102.159 138.400,101.914 138.400 C 101.668 138.400,101.182 138.662,100.834 138.983 C 97.224 142.302,97.185 142.325,95.967 141.865 C 95.325 141.623,94.800 141.276,94.800 141.095 C 94.800 140.625,90.481 136.400,90.000 136.400 C 89.780 136.400,89.600 136.126,89.600 135.791 C 89.600 135.457,89.150 134.978,88.600 134.727 C 88.050 134.477,87.600 134.097,87.600 133.884 C 87.600 133.671,86.565 132.530,85.300 131.348 C 84.035 130.166,82.634 128.839,82.186 128.400 C 81.738 127.960,81.177 127.600,80.940 127.600 C 80.702 127.600,80.007 127.206,79.394 126.724 C 77.926 125.569,68.247 125.374,67.436 126.483 C 67.181 126.832,66.301 127.398,65.481 127.741 C 64.660 128.083,63.882 128.642,63.752 128.982 C 63.621 129.322,63.264 129.600,62.957 129.600 C 62.651 129.600,62.400 129.740,62.400 129.911 C 62.400 130.082,61.860 130.813,61.200 131.536 C 60.540 132.258,60.000 133.081,60.000 133.363 C 60.000 133.646,59.640 134.293,59.200 134.800 C 58.496 135.612,58.400 136.297,58.400 140.498 C 58.400 144.668,58.501 145.403,59.200 146.291 C 59.640 146.850,60.000 147.552,60.000 147.850 C 60.000 148.569,86.292 174.800,87.012 174.800 C 87.320 174.800,87.752 175.136,87.971 175.547 C 88.209 175.990,89.006 176.395,89.934 176.543 C 90.793 176.680,91.722 177.064,91.997 177.396 C 92.718 178.266,99.123 178.267,99.456 177.398 C 99.583 177.067,100.394 176.682,101.258 176.544 C 102.193 176.395,102.991 175.991,103.229 175.547 C 103.448 175.136,103.857 174.800,104.136 174.800 C 104.917 174.800,108.911 171.692,112.141 168.570 C 112.614 168.114,113.315 167.624,113.700 167.483 C 114.085 167.341,114.400 167.045,114.400 166.825 C 114.400 166.605,114.829 166.195,115.353 165.913 C 116.208 165.452,118.744 163.368,121.453 160.900 C 121.997 160.405,122.612 160.000,122.821 160.000 C 123.029 160.000,123.200 159.750,123.200 159.443 C 123.200 159.137,123.650 158.774,124.200 158.636 C 124.750 158.498,125.200 158.118,125.200 157.792 C 125.200 157.467,125.385 157.200,125.612 157.200 C 126.036 157.200,131.053 153.137,131.844 152.153 C 132.088 151.849,132.428 151.600,132.598 151.600 C 132.769 151.600,133.324 151.195,133.832 150.700 C 135.191 149.376,136.079 148.640,137.200 147.912 C 137.750 147.554,138.920 146.630,139.800 145.857 C 140.680 145.085,141.900 144.036,142.512 143.527 C 143.123 143.017,144.011 142.195,144.484 141.700 C 144.957 141.205,145.542 140.800,145.783 140.800 C 146.025 140.800,146.495 140.485,146.829 140.100 C 147.163 139.715,148.123 138.860,148.961 138.200 C 150.827 136.732,152.337 135.441,153.414 134.392 C 153.862 133.956,154.447 133.600,154.714 133.600 C 154.981 133.600,155.200 133.330,155.200 133.000 C 155.200 132.670,155.380 132.400,155.600 132.400 C 155.820 132.400,156.340 132.060,156.755 131.645 C 157.170 131.230,157.782 130.735,158.115 130.545 C 158.926 130.083,162.695 126.826,163.723 125.700 C 164.175 125.205,164.684 124.800,164.854 124.800 C 165.024 124.800,165.605 124.395,166.144 123.900 C 167.383 122.762,168.042 122.225,170.345 120.476 C 171.365 119.701,172.435 118.736,172.723 118.333 C 173.010 117.930,173.505 117.600,173.823 117.600 C 174.140 117.600,174.400 117.359,174.400 117.064 C 174.400 116.770,174.855 116.321,175.411 116.068 C 175.967 115.814,176.527 115.335,176.654 115.003 C 176.781 114.672,177.151 114.400,177.476 114.400 C 178.581 114.400,183.600 108.664,183.600 107.400 C 183.600 107.029,183.960 106.269,184.400 105.709 C 185.061 104.869,185.200 104.086,185.200 101.207 C 185.200 98.297,185.068 97.570,184.400 96.800 C 183.960 96.293,183.600 95.573,183.600 95.200 C 183.600 94.827,183.240 94.107,182.800 93.600 C 182.360 93.093,182.000 92.546,182.000 92.385 C 182.000 91.788,178.566 88.766,177.611 88.522 C 177.067 88.382,176.347 87.953,176.011 87.568 C 175.298 86.751,170.130 86.318,166.268 86.753 M175.600 88.119 C 177.643 89.086,181.600 92.239,181.600 92.899 C 181.600 93.140,181.898 93.666,182.261 94.068 C 184.283 96.301,184.911 101.812,183.594 105.750 C 182.478 109.086,180.309 111.494,173.279 117.200 C 167.713 121.718,165.366 123.686,163.600 125.311 C 163.019 125.846,158.859 129.283,156.000 131.589 C 153.280 133.784,144.174 141.307,142.259 142.943 C 141.191 143.854,139.854 144.960,139.289 145.400 C 138.723 145.840,137.932 146.515,137.530 146.900 C 137.129 147.285,136.665 147.602,136.500 147.605 C 136.335 147.608,135.390 148.365,134.400 149.288 C 132.508 151.051,123.380 158.649,116.600 164.104 C 114.400 165.874,112.416 167.544,112.190 167.814 C 111.965 168.085,110.525 169.316,108.990 170.550 C 107.456 171.784,105.936 173.019,105.613 173.294 C 100.350 177.776,93.485 178.315,87.751 174.695 C 83.678 172.124,61.051 148.722,59.900 145.891 C 55.993 136.277,62.729 126.400,73.192 126.400 C 78.991 126.400,80.115 127.062,88.632 135.497 C 96.890 143.675,96.674 143.569,99.579 140.873 C 99.978 140.503,100.774 139.840,101.347 139.400 C 101.920 138.960,102.887 138.148,103.495 137.594 C 104.103 137.041,106.850 134.761,109.600 132.527 C 112.350 130.293,115.140 127.985,115.800 127.399 C 116.460 126.812,117.617 125.852,118.372 125.266 C 122.069 122.393,124.291 120.575,125.200 119.681 C 125.750 119.140,126.830 118.225,127.600 117.649 C 128.370 117.072,129.180 116.401,129.400 116.157 C 129.620 115.914,131.330 114.480,133.200 112.971 C 135.070 111.462,139.762 107.612,143.627 104.414 C 147.493 101.216,151.354 98.060,152.209 97.400 C 153.064 96.740,154.187 95.794,154.703 95.297 C 155.220 94.800,156.758 93.497,158.121 92.401 C 159.485 91.305,161.034 90.047,161.563 89.604 C 162.093 89.162,162.755 88.800,163.035 88.800 C 163.314 88.800,163.828 88.515,164.177 88.166 C 165.698 86.645,172.428 86.617,175.600 88.119 M175.459 150.772 C 174.269 150.940,173.371 151.308,173.139 151.723 C 172.931 152.095,172.493 152.400,172.165 152.400 C 171.449 152.400,167.349 156.584,166.125 158.565 C 165.434 159.682,165.207 160.806,165.048 163.890 L 164.846 167.800 165.245 164.208 C 165.464 162.232,165.882 160.342,166.174 160.008 C 166.466 159.673,166.827 159.000,166.976 158.512 C 167.441 156.984,171.290 153.389,173.768 152.168 L 176.137 151.000 252.968 151.000 L 329.800 151.000 331.800 151.990 C 343.586 157.826,343.324 173.782,331.364 178.570 L 328.792 179.600 252.746 179.600 L 176.700 179.600 174.250 178.533 C 170.309 176.817,166.510 172.567,165.550 168.800 C 165.332 167.948,165.288 168.015,165.247 169.251 C 165.220 170.082,165.448 170.908,165.780 171.183 C 166.098 171.448,166.562 172.280,166.811 173.032 C 167.059 173.784,167.489 174.400,167.767 174.400 C 168.044 174.400,168.477 174.850,168.727 175.400 C 168.978 175.950,169.359 176.400,169.573 176.400 C 169.788 176.400,170.414 176.850,170.964 177.400 C 171.514 177.950,172.267 178.400,172.638 178.400 C 173.008 178.400,173.542 178.715,173.824 179.100 C 174.538 180.077,329.500 180.392,331.200 179.420 C 331.750 179.105,332.740 178.594,333.400 178.283 C 334.848 177.602,338.400 174.309,338.400 173.648 C 338.400 173.388,338.650 173.079,338.955 172.962 C 339.261 172.845,339.740 171.905,340.021 170.874 C 340.303 169.843,340.773 168.645,341.066 168.211 C 341.779 167.157,341.746 163.387,341.012 162.062 C 340.688 161.478,340.236 160.254,340.007 159.341 C 339.778 158.429,339.323 157.579,338.996 157.454 C 338.668 157.328,338.400 156.976,338.400 156.672 C 338.400 155.944,334.539 152.400,333.745 152.400 C 333.406 152.400,332.800 151.995,332.400 151.500 L 331.671 150.600 254.535 150.549 C 212.111 150.522,176.527 150.622,175.459 150.772 M166.326 228.022 C 166.249 228.254,165.385 228.623,164.406 228.843 C 163.427 229.063,162.350 229.497,162.013 229.807 C 161.676 230.117,160.797 230.873,160.060 231.486 C 159.322 232.099,158.377 232.915,157.960 233.300 C 157.542 233.685,157.052 234.000,156.872 234.000 C 156.692 234.000,156.176 234.405,155.725 234.900 C 155.275 235.395,154.233 236.340,153.410 237.000 C 152.587 237.660,151.500 238.560,150.995 239.000 C 150.490 239.440,149.614 240.160,149.049 240.600 C 148.483 241.040,147.430 241.914,146.710 242.541 C 145.989 243.169,144.776 244.159,144.013 244.741 C 143.250 245.324,142.305 246.115,141.913 246.500 C 141.521 246.885,141.020 247.200,140.800 247.200 C 140.580 247.200,140.400 247.458,140.400 247.773 C 140.400 248.088,140.040 248.460,139.600 248.600 C 139.159 248.740,138.613 249.202,138.386 249.627 C 138.158 250.052,137.748 250.400,137.475 250.400 C 137.201 250.400,136.680 250.715,136.315 251.100 C 135.951 251.485,134.917 252.340,134.017 253.000 C 133.118 253.660,131.590 254.965,130.622 255.900 C 129.655 256.835,128.675 257.600,128.446 257.600 C 128.216 257.600,127.835 257.960,127.600 258.400 C 127.365 258.840,126.915 259.200,126.600 259.200 C 126.285 259.200,125.835 259.560,125.600 260.000 C 125.365 260.440,124.941 260.800,124.658 260.800 C 124.375 260.800,123.779 261.205,123.333 261.700 C 122.887 262.195,121.942 263.050,121.234 263.600 C 120.525 264.150,119.566 265.005,119.101 265.500 C 118.636 265.995,118.115 266.400,117.944 266.400 C 117.773 266.400,116.898 267.120,116.000 268.000 C 115.102 268.880,114.235 269.600,114.073 269.600 C 113.911 269.600,113.153 270.149,112.389 270.821 C 111.625 271.493,110.217 272.708,109.261 273.521 C 108.304 274.334,107.134 275.378,106.661 275.839 C 106.187 276.301,105.592 276.751,105.337 276.839 C 104.830 277.015,101.200 280.067,99.792 281.500 C 99.306 281.995,98.726 282.400,98.503 282.400 C 98.280 282.400,97.823 282.805,97.488 283.300 C 96.887 284.189,96.791 284.112,89.842 277.200 C 85.971 273.350,82.398 270.025,81.902 269.811 C 81.406 269.598,80.864 269.207,80.698 268.943 C 80.531 268.679,79.818 268.336,79.114 268.181 C 78.409 268.026,77.143 267.540,76.301 267.101 C 74.459 266.141,70.852 266.267,69.675 267.332 C 69.269 267.700,68.465 268.000,67.889 268.000 C 67.313 268.000,66.356 268.450,65.762 269.000 C 65.169 269.550,64.549 270.000,64.384 270.000 C 63.900 270.000,61.600 272.281,61.600 272.760 C 61.600 273.002,61.416 273.200,61.191 273.200 C 60.967 273.200,60.569 273.695,60.307 274.300 C 60.046 274.905,59.510 275.829,59.116 276.354 C 58.042 277.785,58.064 286.261,59.145 287.646 C 59.555 288.171,60.017 289.005,60.172 289.500 C 60.327 289.995,60.627 290.400,60.840 290.400 C 61.052 290.400,61.335 290.715,61.469 291.100 C 61.756 291.925,67.482 297.600,68.027 297.600 C 68.232 297.600,68.400 297.767,68.400 297.972 C 68.400 298.460,80.336 310.400,80.824 310.400 C 81.031 310.400,81.200 310.658,81.200 310.973 C 81.200 311.288,81.560 311.660,82.000 311.800 C 82.440 311.940,82.800 312.217,82.800 312.417 C 82.800 312.751,83.868 313.816,86.361 315.970 C 86.890 316.426,87.558 316.800,87.846 316.800 C 88.133 316.800,88.746 317.205,89.207 317.700 C 90.305 318.879,100.888 319.107,101.732 317.970 C 101.990 317.624,102.813 317.128,103.563 316.869 C 104.313 316.610,105.178 316.038,105.486 315.599 C 105.794 315.159,106.305 314.800,106.623 314.800 C 106.940 314.800,107.200 314.530,107.200 314.200 C 107.200 313.870,107.419 313.600,107.686 313.600 C 107.953 313.600,108.538 313.237,108.986 312.793 C 109.434 312.349,110.972 311.044,112.405 309.893 C 114.871 307.912,115.926 306.992,117.814 305.181 C 118.262 304.751,118.840 304.400,119.100 304.400 C 119.360 304.400,119.765 304.040,120.000 303.600 C 120.235 303.160,120.659 302.800,120.942 302.800 C 121.225 302.800,121.834 302.395,122.296 301.900 C 124.046 300.025,125.483 298.800,125.933 298.800 C 126.190 298.800,126.400 298.559,126.400 298.264 C 126.400 297.970,126.855 297.521,127.411 297.268 C 127.967 297.014,128.527 296.535,128.654 296.203 C 128.781 295.872,129.128 295.600,129.425 295.600 C 129.721 295.600,130.389 295.195,130.908 294.700 C 131.427 294.205,132.430 293.350,133.137 292.800 C 133.844 292.250,135.213 291.035,136.179 290.100 C 137.146 289.165,138.130 288.400,138.365 288.400 C 138.601 288.400,139.018 288.040,139.293 287.600 C 139.568 287.160,140.025 286.800,140.309 286.800 C 140.593 286.800,140.931 286.525,141.060 286.188 C 141.189 285.851,141.708 285.356,142.212 285.088 C 143.032 284.652,146.971 281.304,149.492 278.900 C 150.012 278.405,150.599 278.000,150.798 278.000 C 150.996 278.000,151.605 277.595,152.151 277.100 C 152.696 276.605,153.710 275.750,154.403 275.200 C 155.096 274.650,156.472 273.435,157.460 272.500 C 158.449 271.565,159.373 270.800,159.514 270.800 C 159.656 270.800,160.138 270.439,160.586 269.997 C 161.034 269.555,162.795 268.084,164.500 266.728 C 166.205 265.371,167.600 264.113,167.600 263.931 C 167.600 263.749,167.838 263.600,168.128 263.600 C 168.418 263.600,169.037 263.195,169.503 262.700 C 169.969 262.205,170.830 261.440,171.416 261.000 C 172.662 260.064,174.647 258.366,175.842 257.213 C 176.305 256.766,176.819 256.400,176.984 256.400 C 177.148 256.400,178.351 255.275,179.655 253.900 C 180.960 252.525,182.381 251.034,182.814 250.586 C 183.246 250.138,183.600 249.311,183.600 248.748 C 183.600 248.185,183.960 247.398,184.400 247.000 C 185.085 246.380,185.200 245.768,185.200 242.738 C 185.200 239.733,185.079 239.079,184.400 238.400 C 183.960 237.960,183.600 237.149,183.600 236.597 C 183.600 236.026,183.169 235.220,182.600 234.725 C 182.050 234.247,181.600 233.630,181.600 233.355 C 181.600 233.079,181.249 232.743,180.820 232.606 C 180.392 232.470,179.930 232.008,179.794 231.580 C 179.657 231.151,179.295 230.800,178.989 230.800 C 178.682 230.800,178.109 230.457,177.716 230.039 C 177.322 229.620,176.235 229.073,175.300 228.823 C 174.365 228.574,173.600 228.196,173.600 227.985 C 173.600 227.448,166.505 227.485,166.326 228.022 M173.749 229.004 C 183.902 231.648,187.789 244.624,180.671 252.114 C 178.957 253.917,175.872 256.590,170.651 260.797 C 170.239 261.128,169.609 261.684,169.251 262.031 C 168.606 262.657,164.435 266.071,162.282 267.736 C 161.668 268.211,160.768 268.978,160.282 269.440 C 159.797 269.902,156.790 272.401,153.600 274.994 C 150.410 277.587,147.530 279.960,147.200 280.267 C 144.864 282.438,142.553 284.384,142.300 284.391 C 142.135 284.396,141.607 284.793,141.126 285.274 C 140.645 285.755,135.200 290.281,129.026 295.332 C 122.852 300.383,117.530 304.751,117.200 305.039 C 116.870 305.327,116.238 305.886,115.795 306.281 C 115.353 306.677,114.093 307.720,112.995 308.600 C 111.898 309.480,110.910 310.311,110.800 310.447 C 110.043 311.381,103.528 316.367,102.756 316.603 C 102.230 316.763,101.467 317.188,101.059 317.547 C 99.491 318.929,92.606 318.696,89.579 317.158 C 86.784 315.739,64.032 293.857,61.246 289.909 C 56.815 283.628,58.295 275.297,64.691 270.530 C 65.521 269.911,66.290 269.289,66.400 269.149 C 66.763 268.684,71.632 267.600,73.332 267.605 C 78.396 267.619,80.701 269.049,89.225 277.464 C 96.261 284.411,97.104 285.004,98.077 283.700 C 98.365 283.315,99.230 282.525,100.000 281.945 C 100.770 281.365,101.785 280.555,102.254 280.145 C 102.724 279.735,103.780 278.860,104.600 278.200 C 105.419 277.540,106.385 276.714,106.745 276.364 C 107.105 276.014,111.270 272.568,116.000 268.705 C 120.730 264.842,125.104 261.213,125.721 260.641 C 126.337 260.068,126.946 259.600,127.074 259.600 C 127.202 259.600,127.597 259.281,127.953 258.891 C 128.309 258.501,129.770 257.233,131.200 256.074 C 132.630 254.914,134.185 253.613,134.656 253.182 C 135.127 252.752,135.614 252.400,135.738 252.400 C 135.862 252.400,136.467 251.937,137.082 251.372 C 139.222 249.403,139.828 248.892,144.400 245.191 C 149.022 241.450,149.517 241.041,151.013 239.719 C 151.460 239.323,152.450 238.524,153.213 237.941 C 153.976 237.359,155.230 236.306,156.000 235.600 C 156.770 234.894,158.030 233.842,158.800 233.261 C 159.570 232.680,160.290 232.113,160.400 232.000 C 163.369 228.964,168.862 227.731,173.749 229.004 M175.529 284.914 C 175.238 285.197,174.241 285.653,173.313 285.927 C 171.256 286.533,166.800 290.648,166.800 291.941 C 166.800 292.410,166.440 293.018,166.000 293.293 C 165.395 293.670,165.215 294.184,165.260 295.396 C 165.310 296.732,165.349 296.803,165.494 295.819 C 165.590 295.170,166.013 294.201,166.434 293.665 C 166.855 293.130,167.200 292.526,167.200 292.323 C 167.200 290.624,171.736 287.059,175.600 285.721 L 178.200 284.821 252.800 284.821 L 327.400 284.821 330.280 285.776 C 331.863 286.301,333.393 286.923,333.680 287.159 C 333.966 287.395,334.791 288.061,335.512 288.640 C 340.172 292.375,342.067 302.462,338.863 306.471 C 335.526 310.647,333.205 312.413,329.961 313.246 C 326.745 314.071,178.787 314.073,175.800 313.247 C 172.737 312.401,167.200 308.181,167.200 306.692 C 167.200 306.490,166.849 305.830,166.419 305.227 C 165.896 304.492,165.508 302.956,165.242 300.565 L 164.846 297.000 165.054 301.000 C 165.224 304.256,165.406 305.132,166.031 305.715 C 166.454 306.109,166.800 306.664,166.800 306.948 C 166.800 307.635,170.372 311.600,170.991 311.600 C 171.258 311.600,171.790 311.947,172.174 312.371 C 172.557 312.795,173.610 313.266,174.512 313.419 C 175.415 313.571,176.402 313.945,176.705 314.248 C 177.549 315.092,328.470 315.073,329.314 314.229 C 329.628 313.915,330.586 313.529,331.443 313.371 C 334.244 312.856,339.929 307.431,340.006 305.200 C 340.018 304.870,340.375 303.880,340.800 303.000 C 341.837 300.854,341.837 297.639,340.800 295.704 C 340.360 294.884,340.000 293.909,340.000 293.540 C 340.000 291.973,334.027 286.116,332.052 285.746 C 331.264 285.598,330.378 285.235,330.081 284.939 C 329.300 284.157,176.332 284.133,175.529 284.914 " stroke="none" fill="#555253" fill-rule="evenodd"></path><path id="path3" d="M31.600 23.467 C 31.270 23.580,30.433 23.926,29.740 24.236 C 29.046 24.546,28.321 24.800,28.128 24.800 C 27.342 24.800,25.079 27.740,24.355 29.703 C 23.501 32.015,23.078 368.255,23.927 369.338 C 24.127 369.592,24.407 370.292,24.551 370.893 C 24.961 372.611,27.151 374.788,29.525 375.838 L 31.700 376.800 201.675 376.800 L 371.651 376.800 373.737 375.846 C 375.967 374.826,378.627 372.148,379.108 370.439 C 379.492 369.071,379.489 30.915,379.104 29.545 C 378.770 28.357,375.748 24.807,375.052 24.786 C 374.804 24.779,373.880 24.425,373.000 24.000 C 371.460 23.256,33.768 22.729,31.600 23.467 M372.720 24.436 C 375.610 25.412,378.182 27.958,378.690 30.345 C 379.094 32.239,379.096 368.149,378.693 370.041 C 378.227 372.228,375.433 374.841,372.643 375.700 C 369.528 376.659,34.316 376.795,31.200 375.839 C 27.155 374.598,25.545 373.010,24.602 369.332 C 23.751 366.010,23.874 32.352,24.728 29.872 C 25.605 27.321,27.704 25.364,30.521 24.471 C 32.968 23.694,35.147 23.684,201.622 23.642 L 370.245 23.600 372.720 24.436 M166.705 87.195 C 165.663 87.381,164.525 87.817,164.177 88.166 C 163.828 88.515,163.314 88.800,163.035 88.800 C 162.755 88.800,162.093 89.162,161.563 89.604 C 161.034 90.047,159.485 91.305,158.121 92.401 C 156.758 93.497,155.220 94.800,154.703 95.297 C 154.187 95.794,153.064 96.740,152.209 97.400 C 151.354 98.060,147.493 101.216,143.627 104.414 C 139.762 107.612,135.070 111.462,133.200 112.971 C 131.330 114.480,129.620 115.914,129.400 116.157 C 129.180 116.401,128.370 117.072,127.600 117.649 C 126.830 118.225,125.750 119.140,125.200 119.681 C 124.291 120.575,122.069 122.393,118.372 125.266 C 117.617 125.852,116.460 126.812,115.800 127.399 C 115.140 127.985,112.350 130.293,109.600 132.527 C 106.850 134.761,104.103 137.041,103.495 137.594 C 102.887 138.148,101.920 138.960,101.347 139.400 C 100.774 139.840,99.978 140.503,99.579 140.873 C 96.674 143.569,96.890 143.675,88.632 135.497 C 81.135 128.073,78.618 126.346,75.459 126.460 L 73.800 126.520 75.400 126.776 C 76.280 126.916,77.669 127.339,78.487 127.716 C 79.305 128.092,80.159 128.400,80.384 128.400 C 80.610 128.400,83.991 131.555,87.897 135.412 C 97.623 145.013,96.069 144.723,103.388 138.295 C 103.949 137.803,104.811 137.089,105.304 136.709 C 105.797 136.329,107.514 134.933,109.120 133.606 C 110.726 132.279,112.314 130.970,112.649 130.697 C 112.984 130.424,113.562 129.930,113.934 129.600 C 115.224 128.456,120.205 124.356,121.125 123.680 C 121.634 123.306,122.443 122.640,122.922 122.200 C 123.401 121.760,125.876 119.683,128.422 117.585 C 133.606 113.313,133.972 113.008,135.600 111.600 C 136.236 111.050,136.993 110.420,137.282 110.200 C 139.058 108.850,141.897 106.557,142.451 106.025 C 143.326 105.185,144.604 104.121,147.000 102.239 C 148.100 101.374,149.810 99.967,150.800 99.112 C 152.995 97.215,152.795 97.380,158.200 92.976 C 166.509 86.205,172.365 85.590,178.866 90.806 C 183.693 94.680,185.457 104.520,181.987 108.214 C 181.554 108.675,181.200 109.199,181.200 109.380 C 181.200 109.780,179.777 111.134,176.600 113.756 C 175.280 114.846,173.912 116.022,173.560 116.369 C 173.208 116.716,172.308 117.479,171.560 118.065 C 170.812 118.651,169.750 119.508,169.200 119.969 C 167.729 121.201,165.884 122.757,165.200 123.342 C 164.870 123.624,162.440 125.628,159.800 127.794 C 157.160 129.961,154.715 132.018,154.367 132.367 C 154.019 132.715,153.136 133.450,152.405 134.000 C 150.434 135.484,148.280 137.198,147.600 137.824 C 146.935 138.437,144.835 140.270,143.732 141.200 C 143.341 141.530,141.396 143.100,139.410 144.688 C 137.425 146.277,135.530 147.819,135.200 148.115 C 134.870 148.412,131.928 150.864,128.662 153.565 C 125.397 156.266,122.427 158.734,122.062 159.049 C 121.698 159.365,120.500 160.352,119.400 161.242 C 116.895 163.269,114.569 165.213,113.682 166.020 C 112.080 167.478,104.098 173.900,103.000 174.614 C 99.020 177.204,92.347 177.032,88.000 174.228 C 85.141 172.384,61.431 148.456,60.822 146.800 C 60.538 146.030,60.057 144.833,59.753 144.140 C 56.966 137.787,63.027 128.085,70.600 126.777 L 72.200 126.500 70.733 126.450 C 62.892 126.182,56.530 137.599,59.900 145.891 C 61.051 148.722,83.678 172.124,87.751 174.695 C 93.485 178.315,100.350 177.776,105.613 173.294 C 105.936 173.019,107.456 171.784,108.990 170.550 C 110.525 169.316,111.965 168.085,112.190 167.814 C 112.416 167.544,114.400 165.874,116.600 164.104 C 123.380 158.649,132.508 151.051,134.400 149.288 C 135.390 148.365,136.335 147.608,136.500 147.605 C 136.665 147.602,137.129 147.285,137.530 146.900 C 137.932 146.515,138.723 145.840,139.289 145.400 C 139.854 144.960,141.191 143.854,142.259 142.943 C 144.174 141.307,153.280 133.784,156.000 131.589 C 158.859 129.283,163.019 125.846,163.600 125.311 C 165.366 123.686,167.713 121.718,173.279 117.200 C 180.309 111.494,182.478 109.086,183.594 105.750 C 184.911 101.812,184.283 96.301,182.261 94.068 C 181.898 93.666,181.600 93.140,181.600 92.899 C 181.600 92.239,177.643 89.086,175.600 88.119 C 173.518 87.133,169.439 86.710,166.705 87.195 M176.800 151.068 C 173.495 151.610,168.197 155.674,166.971 158.608 C 166.664 159.343,166.229 160.058,166.006 160.196 C 165.783 160.334,165.615 161.022,165.634 161.724 C 165.667 162.940,165.684 162.953,165.988 162.000 C 166.164 161.450,166.597 160.460,166.951 159.800 C 167.305 159.140,167.596 158.405,167.598 158.166 C 167.602 157.293,171.378 153.932,173.756 152.683 L 176.200 151.400 253.000 151.400 L 329.800 151.400 332.000 152.564 C 339.063 156.302,342.408 166.264,338.414 171.667 C 337.966 172.272,337.600 172.945,337.600 173.161 C 337.600 173.377,336.614 174.405,335.409 175.445 C 333.370 177.206,332.108 177.867,328.953 178.828 C 328.180 179.064,298.951 179.169,251.953 179.104 L 176.200 179.000 173.888 177.847 C 170.910 176.363,168.227 173.627,166.780 170.600 C 166.150 169.280,165.626 168.483,165.617 168.829 C 165.548 171.393,170.414 176.863,174.250 178.533 L 176.700 179.600 252.746 179.600 L 328.792 179.600 331.364 178.570 C 343.324 173.782,343.586 157.826,331.800 151.990 L 329.800 151.000 253.800 150.952 C 212.000 150.925,177.350 150.978,176.800 151.068 M165.328 165.600 C 165.328 167.030,165.401 167.615,165.489 166.900 C 165.578 166.185,165.578 165.015,165.489 164.300 C 165.401 163.585,165.328 164.170,165.328 165.600 M165.646 229.057 C 163.892 229.533,161.500 230.874,160.400 232.000 C 160.290 232.113,159.570 232.680,158.800 233.261 C 158.030 233.842,156.770 234.894,156.000 235.600 C 155.230 236.306,153.976 237.359,153.213 237.941 C 152.450 238.524,151.460 239.323,151.013 239.719 C 149.517 241.041,149.022 241.450,144.400 245.191 C 139.828 248.892,139.222 249.403,137.082 251.372 C 136.467 251.937,135.862 252.400,135.738 252.400 C 135.614 252.400,135.127 252.752,134.656 253.182 C 134.185 253.613,132.630 254.914,131.200 256.074 C 129.770 257.233,128.309 258.501,127.953 258.891 C 127.597 259.281,127.202 259.600,127.074 259.600 C 126.946 259.600,126.337 260.068,125.721 260.641 C 125.104 261.213,120.730 264.842,116.000 268.705 C 111.270 272.568,107.105 276.014,106.745 276.364 C 106.385 276.714,105.419 277.540,104.600 278.200 C 103.780 278.860,102.724 279.735,102.254 280.145 C 101.785 280.555,100.770 281.365,100.000 281.945 C 99.230 282.525,98.365 283.315,98.077 283.700 C 97.104 285.004,96.261 284.411,89.225 277.464 C 80.701 269.049,78.396 267.619,73.332 267.605 C 71.632 267.600,66.763 268.684,66.400 269.149 C 66.290 269.289,65.521 269.911,64.691 270.530 C 58.295 275.297,56.815 283.628,61.246 289.909 C 64.032 293.857,86.784 315.739,89.579 317.158 C 92.606 318.696,99.491 318.929,101.059 317.547 C 101.467 317.188,102.230 316.763,102.756 316.603 C 103.528 316.367,110.043 311.381,110.800 310.447 C 110.910 310.311,111.898 309.480,112.995 308.600 C 114.093 307.720,115.353 306.677,115.795 306.281 C 116.238 305.886,116.870 305.327,117.200 305.039 C 117.530 304.751,122.852 300.383,129.026 295.332 C 135.200 290.281,140.645 285.755,141.126 285.274 C 141.607 284.793,142.135 284.396,142.300 284.391 C 142.553 284.384,144.864 282.438,147.200 280.267 C 147.530 279.960,150.410 277.587,153.600 274.994 C 156.790 272.401,159.797 269.902,160.282 269.440 C 160.768 268.978,161.668 268.211,162.282 267.736 C 164.435 266.071,168.606 262.657,169.251 262.031 C 169.609 261.684,170.239 261.128,170.651 260.797 C 180.700 252.701,182.466 250.843,183.571 247.205 C 186.993 235.939,177.121 225.944,165.646 229.057 M173.400 229.408 C 174.280 229.543,175.671 230.092,176.491 230.627 C 177.312 231.162,178.091 231.600,178.222 231.600 C 178.622 231.600,180.533 233.701,181.707 235.432 C 184.177 239.072,184.324 246.488,181.991 249.684 C 181.556 250.280,181.196 250.910,181.191 251.084 C 181.186 251.258,180.441 252.030,179.536 252.800 C 178.631 253.570,177.600 254.476,177.245 254.813 C 176.890 255.150,175.700 256.136,174.600 257.005 C 173.500 257.873,172.406 258.767,172.169 258.992 C 171.931 259.216,168.878 261.740,165.385 264.600 C 161.891 267.460,158.612 270.205,158.098 270.700 C 157.584 271.195,157.007 271.600,156.815 271.600 C 156.623 271.600,156.407 271.735,156.333 271.900 C 156.260 272.065,155.210 273.002,154.000 273.983 C 151.191 276.259,150.563 276.798,149.432 277.900 C 148.924 278.395,148.369 278.800,148.198 278.800 C 148.028 278.800,147.688 279.056,147.444 279.369 C 147.200 279.682,145.650 281.034,144.000 282.373 C 142.350 283.712,140.736 285.030,140.413 285.304 C 140.090 285.577,137.210 287.938,134.013 290.551 C 130.816 293.165,127.930 295.541,127.600 295.833 C 127.270 296.124,126.634 296.686,126.187 297.081 C 125.740 297.477,124.701 298.307,123.879 298.926 C 122.521 299.950,121.926 300.456,119.400 302.738 C 118.960 303.136,116.980 304.766,115.000 306.361 C 113.020 307.956,110.514 310.012,109.431 310.931 C 104.341 315.245,103.614 315.770,101.125 316.935 C 97.966 318.414,93.710 318.440,90.563 317.000 C 89.360 316.450,88.292 316.000,88.188 316.000 C 87.909 316.000,87.651 315.750,73.948 302.207 C 63.943 292.319,61.191 289.378,60.796 288.151 C 60.521 287.298,60.109 286.365,59.880 286.078 C 57.156 282.652,60.623 273.529,65.943 270.126 C 69.064 268.129,77.587 267.645,79.308 269.366 C 79.593 269.650,80.305 270.135,80.890 270.442 C 81.475 270.749,85.090 274.105,88.923 277.900 C 96.102 285.008,96.866 285.512,98.284 284.075 C 98.678 283.676,99.893 282.641,100.984 281.775 C 102.075 280.909,103.246 279.930,103.586 279.600 C 103.927 279.270,105.329 278.118,106.703 277.041 C 108.076 275.964,109.200 274.929,109.200 274.741 C 109.200 274.553,109.425 274.395,109.700 274.389 C 109.975 274.383,111.169 273.483,112.353 272.389 C 113.538 271.295,114.618 270.400,114.754 270.400 C 114.890 270.400,115.901 269.588,117.001 268.595 C 119.557 266.286,119.879 266.016,121.585 264.749 C 122.363 264.171,123.402 263.311,123.894 262.839 C 124.385 262.367,129.875 257.812,136.094 252.717 C 142.312 247.622,147.580 243.246,147.800 242.992 C 148.020 242.739,149.095 241.827,150.188 240.966 C 153.415 238.425,154.829 237.256,156.600 235.666 C 157.902 234.498,161.294 231.822,162.797 230.778 C 163.581 230.233,165.336 229.604,166.797 229.343 C 169.332 228.891,170.079 228.898,173.400 229.408 M175.400 285.756 C 171.411 287.184,167.847 290.133,167.041 292.670 C 166.892 293.142,166.506 293.746,166.185 294.013 C 165.863 294.280,165.602 294.971,165.605 295.549 C 165.609 296.396,165.813 296.173,166.660 294.400 C 168.063 291.463,169.673 289.477,171.830 288.021 C 175.629 285.458,170.864 285.600,252.938 285.600 C 333.341 285.600,330.468 285.528,333.284 287.602 C 333.880 288.041,334.483 288.400,334.623 288.400 C 334.764 288.400,335.362 288.917,335.953 289.550 C 343.512 297.641,339.590 311.013,329.136 312.797 C 327.362 313.099,303.931 313.195,251.200 313.115 C 168.937 312.990,175.855 313.173,172.000 311.010 C 170.871 310.376,167.601 307.055,167.598 306.538 C 167.596 306.352,167.305 305.660,166.951 305.000 C 166.597 304.340,166.164 303.350,165.988 302.800 C 165.676 301.822,165.668 301.827,165.643 303.000 C 165.629 303.660,165.970 304.650,166.400 305.200 C 166.830 305.750,167.186 306.394,167.191 306.631 C 167.223 308.193,172.677 312.385,175.800 313.247 C 178.787 314.073,326.745 314.071,329.961 313.246 C 333.205 312.413,335.526 310.647,338.863 306.471 C 342.067 302.462,340.172 292.375,335.512 288.640 C 334.791 288.061,333.966 287.395,333.680 287.159 C 333.393 286.923,331.863 286.301,330.280 285.776 L 327.400 284.821 252.600 284.858 L 177.800 284.896 175.400 285.756 M165.328 299.200 C 165.328 300.630,165.401 301.215,165.489 300.500 C 165.578 299.785,165.578 298.615,165.489 297.900 C 165.401 297.185,165.328 297.770,165.328 299.200 " stroke="none" fill="#908e8e" fill-rule="evenodd"></path><path id="path4" d="M29.400 23.452 C 28.960 23.797,28.105 24.259,27.500 24.479 C 26.895 24.698,26.400 25.110,26.400 25.393 C 26.400 25.676,25.950 26.203,25.400 26.563 C 24.850 26.924,24.399 27.529,24.397 27.909 C 24.396 28.289,24.037 29.140,23.600 29.800 C 22.810 30.993,22.805 32.045,22.803 200.063 L 22.800 369.126 23.878 371.205 C 25.002 373.371,26.842 375.600,27.507 375.600 C 27.719 375.600,28.407 376.005,29.036 376.500 L 30.180 377.400 201.600 377.400 L 373.020 377.400 374.164 376.500 C 374.793 376.005,375.524 375.600,375.788 375.600 C 376.377 375.600,379.199 372.515,379.202 371.867 C 379.204 371.610,379.501 370.860,379.864 370.200 C 380.879 368.352,380.877 32.055,379.862 30.200 C 379.500 29.540,379.204 28.650,379.202 28.223 C 379.200 27.409,376.272 24.406,375.466 24.391 C 375.210 24.386,374.550 24.030,374.000 23.600 C 372.597 22.502,30.800 22.356,29.400 23.452 M373.000 24.000 C 373.880 24.425,374.804 24.779,375.052 24.786 C 375.748 24.807,378.770 28.357,379.104 29.545 C 379.489 30.915,379.492 369.071,379.108 370.439 C 378.627 372.148,375.967 374.826,373.737 375.846 L 371.651 376.800 201.675 376.800 L 31.700 376.800 29.525 375.838 C 27.151 374.788,24.961 372.611,24.551 370.893 C 24.407 370.292,24.127 369.592,23.927 369.338 C 23.078 368.255,23.501 32.015,24.355 29.703 C 25.079 27.740,27.342 24.800,28.128 24.800 C 28.321 24.800,29.046 24.546,29.740 24.236 C 30.433 23.926,31.270 23.580,31.600 23.467 C 33.768 22.729,371.460 23.256,373.000 24.000 M164.301 88.574 C 163.257 89.075,160.467 91.075,158.101 93.020 C 152.793 97.384,152.985 97.223,150.800 99.112 C 149.810 99.967,148.100 101.374,147.000 102.239 C 144.604 104.121,143.326 105.185,142.451 106.025 C 141.897 106.557,139.058 108.850,137.282 110.200 C 136.993 110.420,136.236 111.050,135.600 111.600 C 133.972 113.008,133.606 113.313,128.422 117.585 C 125.876 119.683,123.401 121.760,122.922 122.200 C 122.443 122.640,121.634 123.306,121.125 123.680 C 120.205 124.356,115.224 128.456,113.934 129.600 C 113.562 129.930,112.984 130.424,112.649 130.697 C 112.314 130.970,110.726 132.279,109.120 133.606 C 107.514 134.933,105.797 136.329,105.304 136.709 C 104.811 137.089,103.949 137.803,103.388 138.295 C 96.069 144.723,97.623 145.013,87.897 135.412 C 83.991 131.555,80.564 128.400,80.282 128.400 C 80.000 128.400,79.111 128.064,78.306 127.654 C 77.501 127.244,75.708 126.799,74.322 126.666 C 72.692 126.509,72.083 126.551,72.600 126.784 C 73.040 126.982,73.884 127.156,74.476 127.172 C 75.068 127.187,75.657 127.368,75.783 127.573 C 75.910 127.778,76.965 128.144,78.127 128.385 C 79.390 128.647,80.469 129.141,80.808 129.612 C 81.121 130.045,81.538 130.400,81.735 130.400 C 81.932 130.400,83.311 131.660,84.800 133.200 C 86.289 134.740,87.687 136.000,87.907 136.000 C 88.127 136.000,88.401 136.360,88.516 136.800 C 88.631 137.240,89.012 137.600,89.363 137.600 C 89.713 137.600,90.000 137.786,90.000 138.013 C 90.000 138.551,92.649 141.200,93.187 141.200 C 93.414 141.200,93.600 141.474,93.600 141.810 C 93.600 142.145,94.025 142.582,94.545 142.779 C 95.065 142.977,95.600 143.423,95.733 143.769 C 96.078 144.667,97.161 144.549,98.198 143.500 C 98.687 143.005,99.561 142.240,100.140 141.800 C 100.719 141.360,101.608 140.640,102.117 140.200 C 102.625 139.760,103.737 138.860,104.588 138.200 C 105.439 137.540,106.415 136.685,106.757 136.300 C 107.098 135.915,107.539 135.600,107.736 135.600 C 107.933 135.600,108.792 134.880,109.646 134.000 C 110.500 133.120,111.328 132.400,111.485 132.400 C 111.643 132.400,112.138 132.037,112.586 131.592 C 113.034 131.148,114.345 130.053,115.500 129.158 C 116.655 128.264,117.600 127.367,117.600 127.166 C 117.600 126.965,117.819 126.800,118.086 126.800 C 118.353 126.800,118.938 126.449,119.386 126.019 C 121.162 124.315,121.975 123.642,122.770 123.216 C 123.226 122.972,123.600 122.508,123.600 122.186 C 123.600 121.864,123.883 121.600,124.229 121.600 C 124.574 121.600,125.095 121.375,125.385 121.100 C 125.676 120.825,126.683 119.970,127.624 119.200 C 128.564 118.430,129.709 117.427,130.167 116.970 C 130.625 116.514,131.315 116.024,131.700 115.883 C 132.085 115.741,132.400 115.349,132.400 115.013 C 132.400 114.676,132.662 114.400,132.982 114.400 C 133.302 114.400,133.991 113.995,134.514 113.500 C 135.037 113.005,136.065 112.150,136.798 111.600 C 137.532 111.050,138.528 110.195,139.012 109.700 C 139.496 109.205,140.027 108.800,140.193 108.800 C 140.358 108.800,141.192 108.080,142.046 107.200 C 142.900 106.320,143.700 105.600,143.823 105.600 C 144.194 105.600,147.359 103.052,147.921 102.300 C 148.210 101.915,148.615 101.600,148.823 101.600 C 149.031 101.600,149.900 100.880,150.754 100.000 C 151.608 99.120,152.501 98.400,152.739 98.400 C 152.977 98.400,153.365 98.040,153.600 97.600 C 153.835 97.160,154.252 96.800,154.525 96.800 C 154.799 96.800,155.302 96.485,155.644 96.100 C 155.985 95.715,156.948 94.860,157.782 94.200 C 158.616 93.540,159.823 92.505,160.463 91.900 C 161.104 91.295,161.801 90.800,162.014 90.800 C 162.226 90.800,162.400 90.530,162.400 90.200 C 162.400 89.847,162.771 89.596,163.300 89.591 C 163.795 89.586,164.985 89.226,165.944 88.791 C 168.290 87.727,171.900 87.731,173.896 88.800 C 174.716 89.240,175.796 89.600,176.294 89.600 C 176.833 89.600,177.200 89.843,177.200 90.200 C 177.200 90.530,177.380 90.800,177.600 90.800 C 178.104 90.800,181.200 93.871,181.200 94.371 C 181.200 94.576,181.515 95.058,181.900 95.443 C 183.079 96.621,182.925 105.805,181.700 107.363 C 181.205 107.993,180.800 108.645,180.800 108.812 C 180.800 109.284,178.529 111.600,178.066 111.600 C 177.840 111.600,177.540 111.960,177.400 112.400 C 177.260 112.840,176.890 113.200,176.576 113.200 C 176.263 113.200,175.782 113.560,175.507 114.000 C 175.232 114.440,174.864 114.800,174.689 114.800 C 174.241 114.800,168.400 119.714,168.400 120.091 C 168.400 120.261,168.196 120.400,167.946 120.400 C 167.696 120.400,167.070 120.805,166.556 121.300 C 165.354 122.455,164.676 123.014,161.886 125.149 C 160.629 126.110,159.600 127.055,159.600 127.249 C 159.600 127.442,159.396 127.600,159.146 127.600 C 158.896 127.600,158.283 128.005,157.784 128.500 C 157.284 128.995,156.550 129.670,156.151 130.000 C 155.753 130.330,154.778 131.140,153.985 131.800 C 153.191 132.460,152.036 133.360,151.417 133.800 C 150.799 134.240,149.770 135.095,149.132 135.700 C 148.494 136.305,147.799 136.800,147.586 136.800 C 147.374 136.800,147.200 137.070,147.200 137.400 C 147.200 137.730,147.035 138.000,146.834 138.000 C 146.437 138.000,144.833 139.263,143.403 140.700 C 142.911 141.195,142.304 141.600,142.054 141.600 C 141.804 141.600,141.599 141.735,141.597 141.900 C 141.596 142.065,140.926 142.650,140.109 143.200 C 139.291 143.750,138.303 144.515,137.911 144.900 C 137.520 145.285,137.020 145.600,136.800 145.600 C 136.580 145.600,136.400 145.870,136.400 146.200 C 136.400 146.530,136.140 146.800,135.823 146.800 C 135.505 146.800,135.010 147.118,134.723 147.507 C 134.435 147.896,133.750 148.508,133.200 148.867 C 132.650 149.225,131.502 150.167,130.650 150.960 C 129.797 151.752,128.946 152.400,128.759 152.400 C 128.572 152.400,128.124 152.850,127.763 153.400 C 127.403 153.950,126.899 154.400,126.643 154.400 C 126.387 154.400,125.885 154.715,125.528 155.100 C 124.622 156.076,123.302 157.212,121.201 158.821 C 120.212 159.580,119.167 160.515,118.879 160.900 C 118.590 161.285,118.185 161.600,117.977 161.600 C 117.769 161.600,116.900 162.320,116.046 163.200 C 115.192 164.080,114.299 164.800,114.061 164.800 C 113.823 164.800,113.435 165.160,113.200 165.600 C 112.965 166.040,112.548 166.400,112.275 166.400 C 112.001 166.400,111.498 166.715,111.156 167.100 C 110.815 167.485,109.852 168.340,109.018 169.000 C 108.184 169.660,106.977 170.695,106.337 171.300 C 105.696 171.905,104.999 172.400,104.786 172.400 C 104.574 172.400,104.400 172.670,104.400 173.000 C 104.400 173.330,104.075 173.600,103.678 173.600 C 103.280 173.600,102.345 174.050,101.600 174.600 C 99.952 175.816,92.671 176.092,90.800 175.010 C 90.250 174.692,89.350 174.203,88.800 173.923 C 87.572 173.298,67.891 153.990,62.000 147.631 C 61.670 147.275,61.000 145.367,60.512 143.392 L 59.624 139.800 60.399 137.600 C 60.825 136.390,61.180 135.079,61.187 134.687 C 61.194 134.296,61.470 133.871,61.800 133.745 C 62.130 133.618,62.400 133.270,62.400 132.972 C 62.400 132.245,67.057 128.400,67.936 128.400 C 68.318 128.400,69.337 128.040,70.200 127.600 C 71.685 126.843,71.710 126.800,70.673 126.800 C 63.985 126.800,57.007 137.881,59.753 144.140 C 60.057 144.833,60.538 146.030,60.822 146.800 C 61.431 148.456,85.141 172.384,88.000 174.228 C 92.347 177.032,99.020 177.204,103.000 174.614 C 104.098 173.900,112.080 167.478,113.682 166.020 C 114.569 165.213,116.895 163.269,119.400 161.242 C 120.500 160.352,121.698 159.365,122.062 159.049 C 122.427 158.734,125.397 156.266,128.662 153.565 C 131.928 150.864,134.870 148.412,135.200 148.115 C 135.530 147.819,137.425 146.277,139.410 144.688 C 141.396 143.100,143.341 141.530,143.732 141.200 C 144.835 140.270,146.935 138.437,147.600 137.824 C 148.280 137.198,150.434 135.484,152.405 134.000 C 153.136 133.450,154.019 132.715,154.367 132.367 C 154.715 132.018,157.160 129.961,159.800 127.794 C 162.440 125.628,164.870 123.624,165.200 123.342 C 165.884 122.757,167.729 121.201,169.200 119.969 C 169.750 119.508,170.812 118.651,171.560 118.065 C 172.308 117.479,173.208 116.716,173.560 116.369 C 173.912 116.022,175.280 114.846,176.600 113.756 C 179.777 111.134,181.200 109.780,181.200 109.380 C 181.200 109.199,181.554 108.675,181.987 108.214 C 184.421 105.623,184.199 97.713,181.585 93.839 C 177.807 88.242,169.971 85.855,164.301 88.574 M177.200 151.607 C 173.857 152.127,167.600 156.406,167.600 158.172 C 167.600 158.414,167.211 159.329,166.736 160.206 C 163.600 165.989,167.020 174.424,173.888 177.847 L 176.200 179.000 251.953 179.104 C 298.951 179.169,328.180 179.064,328.953 178.828 C 332.108 177.867,333.370 177.206,335.409 175.445 C 336.614 174.405,337.600 173.377,337.600 173.161 C 337.600 172.945,337.966 172.272,338.414 171.667 C 342.408 166.264,339.063 156.302,332.000 152.564 L 329.800 151.400 254.400 151.363 C 212.930 151.343,178.190 151.453,177.200 151.607 M330.296 152.800 C 331.116 153.240,332.095 153.600,332.471 153.600 C 333.578 153.600,336.881 157.178,338.122 159.723 C 339.528 162.604,339.656 169.690,338.316 170.439 C 337.940 170.650,337.515 171.447,337.372 172.211 C 337.220 173.018,336.874 173.600,336.546 173.600 C 336.235 173.600,335.809 174.050,335.600 174.600 C 335.377 175.187,334.903 175.600,334.453 175.600 C 334.031 175.600,333.586 175.860,333.464 176.178 C 333.342 176.495,332.468 176.971,331.521 177.234 C 330.575 177.497,329.080 177.932,328.200 178.200 C 325.031 179.165,179.715 178.776,176.032 177.793 C 172.767 176.921,167.600 172.662,167.600 170.843 C 167.600 170.393,167.216 169.288,166.747 168.388 C 165.781 166.535,165.869 163.903,166.968 161.800 C 167.313 161.140,167.596 160.266,167.598 159.858 C 167.604 157.960,171.733 154.118,174.683 153.265 C 175.609 152.997,176.475 152.603,176.607 152.389 C 177.159 151.495,328.616 151.900,330.296 152.800 M166.797 229.343 C 165.336 229.604,163.581 230.233,162.797 230.778 C 161.294 231.822,157.902 234.498,156.600 235.666 C 154.829 237.256,153.415 238.425,150.188 240.966 C 149.095 241.827,148.020 242.739,147.800 242.992 C 147.580 243.246,142.312 247.622,136.094 252.717 C 129.875 257.812,124.385 262.367,123.894 262.839 C 123.402 263.311,122.363 264.171,121.585 264.749 C 119.879 266.016,119.557 266.286,117.001 268.595 C 115.901 269.588,114.890 270.400,114.754 270.400 C 114.618 270.400,113.538 271.295,112.353 272.389 C 111.169 273.483,109.975 274.383,109.700 274.389 C 109.425 274.395,109.200 274.553,109.200 274.741 C 109.200 274.929,108.076 275.964,106.703 277.041 C 105.329 278.118,103.927 279.270,103.586 279.600 C 103.246 279.930,102.075 280.909,100.984 281.775 C 99.893 282.641,98.678 283.676,98.284 284.075 C 96.866 285.512,96.102 285.008,88.923 277.900 C 85.090 274.105,81.475 270.749,80.890 270.442 C 80.305 270.135,79.593 269.650,79.308 269.366 C 77.587 267.645,69.064 268.129,65.943 270.126 C 60.623 273.529,57.156 282.652,59.880 286.078 C 60.109 286.365,60.521 287.298,60.796 288.151 C 61.191 289.378,63.943 292.319,73.948 302.207 C 87.651 315.750,87.909 316.000,88.188 316.000 C 88.292 316.000,89.360 316.450,90.563 317.000 C 93.710 318.440,97.966 318.414,101.125 316.935 C 103.614 315.770,104.341 315.245,109.431 310.931 C 110.514 310.012,113.020 307.956,115.000 306.361 C 116.980 304.766,118.960 303.136,119.400 302.738 C 121.926 300.456,122.521 299.950,123.879 298.926 C 124.701 298.307,125.740 297.477,126.187 297.081 C 126.634 296.686,127.270 296.124,127.600 295.833 C 127.930 295.541,130.816 293.165,134.013 290.551 C 137.210 287.938,140.090 285.577,140.413 285.304 C 140.736 285.030,142.350 283.712,144.000 282.373 C 145.650 281.034,147.200 279.682,147.444 279.369 C 147.688 279.056,148.028 278.800,148.198 278.800 C 148.369 278.800,148.924 278.395,149.432 277.900 C 150.563 276.798,151.191 276.259,154.000 273.983 C 155.210 273.002,156.260 272.065,156.333 271.900 C 156.407 271.735,156.623 271.600,156.815 271.600 C 157.007 271.600,157.584 271.195,158.098 270.700 C 158.612 270.205,161.891 267.460,165.385 264.600 C 168.878 261.740,171.931 259.216,172.169 258.992 C 172.406 258.767,173.500 257.873,174.600 257.005 C 175.700 256.136,176.890 255.150,177.245 254.813 C 177.600 254.476,178.631 253.570,179.536 252.800 C 180.441 252.030,181.186 251.258,181.191 251.084 C 181.196 250.910,181.556 250.280,181.991 249.684 C 184.324 246.488,184.177 239.072,181.707 235.432 C 180.533 233.701,178.622 231.600,178.222 231.600 C 178.091 231.600,177.312 231.162,176.491 230.627 C 175.126 229.736,173.958 229.418,170.600 229.021 C 169.940 228.943,168.229 229.088,166.797 229.343 M175.284 230.815 C 175.880 231.247,176.549 231.600,176.770 231.600 C 177.447 231.600,179.926 233.977,181.295 235.941 C 182.848 238.167,183.337 247.367,181.962 248.482 C 181.611 248.767,181.103 249.540,180.834 250.200 C 180.563 250.865,178.886 252.594,177.072 254.079 C 171.657 258.512,171.124 258.964,170.198 259.900 C 169.709 260.395,169.136 260.800,168.926 260.800 C 168.716 260.800,168.154 261.205,167.678 261.700 C 167.201 262.195,166.246 263.050,165.556 263.600 C 164.865 264.150,163.897 265.005,163.404 265.500 C 162.911 265.995,162.373 266.400,162.207 266.400 C 162.042 266.400,161.208 267.120,160.354 268.000 C 159.500 268.880,158.694 269.600,158.562 269.600 C 158.198 269.600,151.045 275.644,150.680 276.260 C 150.504 276.557,150.101 276.800,149.784 276.800 C 149.466 276.800,148.982 277.160,148.707 277.600 C 148.432 278.040,148.065 278.400,147.892 278.400 C 147.481 278.400,142.297 282.768,141.880 283.465 C 141.704 283.759,141.306 284.000,140.994 284.000 C 140.683 284.000,140.235 284.360,140.000 284.800 C 139.765 285.240,139.303 285.600,138.973 285.600 C 138.644 285.600,138.269 285.875,138.140 286.212 C 138.011 286.549,137.497 287.044,136.998 287.312 C 136.073 287.810,132.971 290.334,131.446 291.830 C 130.981 292.286,130.285 292.776,129.900 292.917 C 129.515 293.059,129.200 293.451,129.200 293.787 C 129.200 294.124,128.957 294.400,128.659 294.400 C 128.362 294.400,127.565 294.895,126.887 295.500 C 126.210 296.105,125.175 296.960,124.587 297.400 C 123.999 297.840,122.991 298.695,122.345 299.300 C 121.700 299.905,120.999 300.400,120.786 300.400 C 120.574 300.400,120.400 300.670,120.400 301.000 C 120.400 301.330,120.162 301.600,119.872 301.600 C 119.582 301.600,118.966 302.005,118.504 302.500 C 118.042 302.995,116.300 304.468,114.632 305.774 C 112.965 307.080,111.600 308.295,111.600 308.474 C 111.600 308.653,111.334 308.800,111.009 308.800 C 110.684 308.800,110.124 309.250,109.763 309.800 C 109.403 310.350,108.971 310.800,108.804 310.800 C 108.637 310.800,107.803 311.445,106.950 312.233 C 106.098 313.021,104.905 313.925,104.300 314.243 C 103.695 314.561,103.200 314.993,103.200 315.205 C 103.200 315.416,102.375 315.796,101.366 316.050 C 100.357 316.304,99.438 316.757,99.323 317.056 C 99.014 317.861,92.957 317.814,92.143 317.001 C 91.814 316.671,91.062 316.290,90.472 316.155 C 88.593 315.722,84.000 312.183,84.000 311.168 C 84.000 310.995,83.640 310.740,83.200 310.600 C 82.760 310.460,82.400 310.071,82.400 309.736 C 82.400 309.400,82.046 309.033,81.613 308.919 C 81.181 308.806,80.718 308.373,80.586 307.957 C 80.454 307.541,80.210 307.200,80.044 307.200 C 79.564 307.200,75.200 302.880,75.200 302.405 C 75.200 302.168,74.908 301.863,74.551 301.726 C 73.723 301.408,66.400 294.091,66.400 293.582 C 66.400 293.372,66.233 293.200,66.028 293.200 C 65.559 293.200,62.800 290.618,62.800 290.179 C 62.800 289.999,62.471 289.480,62.068 289.026 C 61.268 288.123,60.400 285.473,60.400 283.934 C 60.400 283.398,60.201 282.761,59.957 282.517 C 59.387 281.947,61.002 276.168,62.065 274.974 C 62.469 274.520,62.800 273.998,62.800 273.815 C 62.800 273.236,65.532 270.800,66.180 270.800 C 66.521 270.800,67.205 270.395,67.700 269.900 C 68.524 269.076,68.970 269.000,73.010 269.000 C 76.977 269.000,77.534 269.090,78.564 269.900 C 79.193 270.395,79.960 270.800,80.269 270.800 C 80.578 270.800,83.994 273.970,87.861 277.844 C 96.036 286.034,96.583 286.323,99.427 283.941 C 100.307 283.203,101.353 282.330,101.751 282.000 C 102.150 281.670,102.884 280.995,103.384 280.500 C 103.883 280.005,104.484 279.600,104.719 279.600 C 104.954 279.600,105.260 279.240,105.400 278.800 C 105.540 278.360,105.885 278.000,106.169 278.000 C 106.452 278.000,107.137 277.595,107.693 277.100 C 108.248 276.605,109.294 275.750,110.017 275.200 C 110.740 274.650,111.728 273.795,112.212 273.300 C 112.696 272.805,113.284 272.400,113.519 272.400 C 113.754 272.400,114.060 272.040,114.200 271.600 C 114.340 271.160,114.710 270.800,115.024 270.800 C 115.337 270.800,115.818 270.440,116.093 270.000 C 116.368 269.560,116.744 269.200,116.929 269.200 C 117.114 269.200,118.098 268.525,119.116 267.700 C 121.730 265.582,121.994 265.356,123.933 263.584 C 124.886 262.713,125.829 262.000,126.029 262.000 C 126.229 262.000,126.618 261.640,126.893 261.200 C 127.168 260.760,127.609 260.400,127.874 260.400 C 128.138 260.400,128.590 260.082,128.877 259.693 C 129.165 259.304,129.850 258.692,130.400 258.333 C 130.950 257.975,132.098 257.033,132.950 256.240 C 133.803 255.448,134.592 254.800,134.704 254.800 C 134.817 254.800,135.309 254.395,135.798 253.900 C 136.287 253.405,137.173 252.640,137.767 252.200 C 139.493 250.920,141.228 249.470,142.195 248.500 C 142.688 248.005,143.232 247.600,143.404 247.600 C 143.575 247.600,144.095 247.228,144.558 246.773 C 146.061 245.297,149.175 242.629,150.828 241.400 C 151.716 240.740,153.238 239.435,154.210 238.500 C 155.183 237.565,156.124 236.800,156.301 236.800 C 156.477 236.800,156.921 236.485,157.287 236.100 C 157.653 235.715,158.548 234.905,159.276 234.301 C 160.004 233.697,161.033 232.842,161.561 232.401 C 162.090 231.960,162.706 231.600,162.930 231.600 C 163.154 231.600,163.673 231.296,164.083 230.925 C 165.745 229.421,173.257 229.347,175.284 230.815 M175.715 286.240 C 167.954 288.350,163.199 298.070,166.736 304.594 C 167.211 305.471,167.600 306.343,167.600 306.532 C 167.600 307.052,170.861 310.371,172.000 311.010 C 175.855 313.173,168.937 312.990,251.200 313.115 C 303.931 313.195,327.362 313.099,329.136 312.797 C 339.590 311.013,343.512 297.641,335.953 289.550 C 335.362 288.917,334.764 288.400,334.623 288.400 C 334.483 288.400,333.880 288.041,333.284 287.602 C 330.465 285.526,333.386 285.597,252.680 285.636 C 189.397 285.667,177.477 285.760,175.715 286.240 M331.694 287.500 C 332.220 287.995,332.864 288.400,333.125 288.400 C 333.875 288.400,336.866 291.281,337.485 292.600 C 337.795 293.260,338.305 294.250,338.618 294.800 C 339.397 296.167,339.397 302.633,338.618 304.000 C 338.305 304.550,337.786 305.540,337.466 306.200 C 336.818 307.536,333.551 310.800,332.862 310.800 C 332.618 310.800,331.830 311.159,331.110 311.599 C 329.074 312.840,175.744 312.864,174.621 311.623 C 174.234 311.195,173.394 310.731,172.755 310.590 C 172.116 310.450,171.409 309.990,171.183 309.567 C 170.957 309.145,170.537 308.800,170.250 308.800 C 169.963 308.800,169.523 308.350,169.273 307.800 C 169.022 307.250,168.655 306.800,168.456 306.800 C 168.257 306.800,167.880 305.947,167.618 304.905 C 167.355 303.863,166.962 302.796,166.744 302.533 C 165.882 301.494,165.859 297.777,166.703 295.946 C 167.146 294.986,167.706 293.705,167.946 293.100 C 168.186 292.495,168.567 292.000,168.791 292.000 C 169.016 292.000,169.200 291.799,169.200 291.554 C 169.200 290.988,172.003 288.400,172.616 288.400 C 172.869 288.400,173.394 288.049,173.782 287.620 C 174.797 286.499,171.183 286.545,254.468 286.574 L 330.736 286.600 331.694 287.500 " stroke="none" fill="#b8b7b7" fill-rule="evenodd"></path></g></svg>